<svg id="e8fjLN6o1Da1" xmlns="http://www.w3.org/2000/svg" xmlns:xlink="http://www.w3.org/1999/xlink" viewBox="0 0 580 570" shape-rendering="geometricPrecision" text-rendering="geometricPrecision"><style><![CDATA[#e8fjLN6o1Da3_to {animation: e8fjLN6o1Da3_to__to 5000ms linear infinite normal forwards}@keyframes e8fjLN6o1Da3_to__to { 0% {transform: translate(358.015836px,513.25px)} 10% {transform: translate(358.015836px,403.17082px)} 20% {transform: translate(358.015836px,315.107476px)} 30% {transform: translate(358.015836px,513.25px)} 40% {transform: translate(358.015836px,403.17082px)} 50% {transform: translate(358.015836px,315.107476px)} 100% {transform: translate(358.015836px,315.107476px)}} #e8fjLN6o1Da3 {animation: e8fjLN6o1Da3_c_o 5000ms linear infinite normal forwards}@keyframes e8fjLN6o1Da3_c_o { 0% {opacity: 0} 10% {opacity: 1} 20% {opacity: 0} 30% {opacity: 0} 40% {opacity: 1} 50% {opacity: 0} 100% {opacity: 0}} #e8fjLN6o1Da12_to {animation: e8fjLN6o1Da12_to__to 5000ms linear infinite normal forwards}@keyframes e8fjLN6o1Da12_to__to { 0% {transform: translate(-11.03959px,521.75px)} 10% {transform: translate(-11.03959px,411.67082px)} 20% {transform: translate(-11.03959px,323.607476px)} 30% {transform: translate(-11.03959px,521.75px)} 40% {transform: translate(-11.03959px,411.67082px)} 50% {transform: translate(-11.03959px,323.607476px)} 100% {transform: translate(-11.03959px,323.607476px)}} #e8fjLN6o1Da12 {animation: e8fjLN6o1Da12_c_o 5000ms linear infinite normal forwards}@keyframes e8fjLN6o1Da12_c_o { 0% {opacity: 0} 10% {opacity: 1} 20% {opacity: 0} 30% {opacity: 0} 40% {opacity: 1} 50% {opacity: 0} 100% {opacity: 0}} #e8fjLN6o1Da21_to {animation: e8fjLN6o1Da21_to__to 5000ms linear infinite normal forwards}@keyframes e8fjLN6o1Da21_to__to { 0% {transform: translate(184.227406px,178.46669px);animation-timing-function: cubic-bezier(0.42,0,0.58,1)} 6% {transform: translate(184.227406px,139.46669px);animation-timing-function: cubic-bezier(0.42,0,0.58,1)} 14% {transform: translate(184.227406px,178.46669px);animation-timing-function: cubic-bezier(0.42,0,0.58,1)} 18% {transform: translate(184.227406px,178.46669px);animation-timing-function: cubic-bezier(0.42,0,0.58,1)} 26% {transform: translate(184.227406px,201.583318px);animation-timing-function: cubic-bezier(0.25,0.46,0.45,0.94)} 32% {transform: translate(184.227406px,91.903231px)} 76% {transform: translate(184.227406px,91.903231px)} 82% {transform: translate(184.227406px,178.46669px)} 100% {transform: translate(184.227406px,178.46669px)}} #e8fjLN6o1Da226 {animation: e8fjLN6o1Da226_s_do 5000ms linear infinite normal forwards}@keyframes e8fjLN6o1Da226_s_do { 0% {stroke-dashoffset: 600} 32% {stroke-dashoffset: 600;animation-timing-function: cubic-bezier(0.42,0,0.58,1)} 42% {stroke-dashoffset: 0;animation-timing-function: cubic-bezier(0.42,0,0.58,1)} 70% {stroke-dashoffset: 0;animation-timing-function: cubic-bezier(0.42,0,0.58,1)} 80% {stroke-dashoffset: 600} 100% {stroke-dashoffset: 600}} #e8fjLN6o1Da227 {animation: e8fjLN6o1Da227_s_do 5000ms linear infinite normal forwards}@keyframes e8fjLN6o1Da227_s_do { 0% {stroke-dashoffset: 600} 32% {stroke-dashoffset: 600;animation-timing-function: cubic-bezier(0.42,0,0.58,1)} 42% {stroke-dashoffset: 0;animation-timing-function: cubic-bezier(0.42,0,0.58,1)} 70% {stroke-dashoffset: 0;animation-timing-function: cubic-bezier(0.42,0,0.58,1)} 80% {stroke-dashoffset: 600} 100% {stroke-dashoffset: 600}} #e8fjLN6o1Da228_to {animation: e8fjLN6o1Da228_to__to 5000ms linear infinite normal forwards}@keyframes e8fjLN6o1Da228_to__to { 0% {transform: translate(169.518px,465.613495px);animation-timing-function: cubic-bezier(0.42,0,0.58,1)} 4% {transform: translate(169.396999px,439.613495px);animation-timing-function: cubic-bezier(0.42,0,0.58,1)} 14% {transform: translate(169.396999px,465.613495px);animation-timing-function: cubic-bezier(0.42,0,0.58,1)} 18% {transform: translate(169.396999px,465.613495px);animation-timing-function: cubic-bezier(0.42,0,0.58,1)} 26% {transform: translate(169.396999px,488.12933px);animation-timing-function: cubic-bezier(0.25,0.46,0.45,0.94)} 32% {transform: translate(169.396999px,422.081822px);animation-timing-function: cubic-bezier(0.25,0.46,0.45,0.94)} 44% {transform: translate(169.396999px,465.613495px)} 100% {transform: translate(169.396999px,465.613495px)}}]]></style><defs><linearGradient id="e8fjLN6o1Da4-fill" x1="320" y1="439.82" x2="379.339" y2="513.196" spreadMethod="pad" gradientUnits="userSpaceOnUse" gradientTransform="translate(0 0)"><stop id="e8fjLN6o1Da4-fill-0" offset="0%" stop-color="#2b98f7"/><stop id="e8fjLN6o1Da4-fill-1" offset="100%" stop-color="rgba(31,212,246,0)"/></linearGradient><linearGradient id="e8fjLN6o1Da5-fill" x1="343" y1="461.566" x2="389.161" y2="530.824" spreadMethod="pad" gradientUnits="userSpaceOnUse" gradientTransform="translate(0 0)"><stop id="e8fjLN6o1Da5-fill-0" offset="0%" stop-color="#2b98f7"/><stop id="e8fjLN6o1Da5-fill-1" offset="100%" stop-color="rgba(31,212,246,0)"/></linearGradient><linearGradient id="e8fjLN6o1Da6-fill" x1="366" y1="481.5" x2="399.509" y2="543.998" spreadMethod="pad" gradientUnits="userSpaceOnUse" gradientTransform="translate(0 0)"><stop id="e8fjLN6o1Da6-fill-0" offset="0%" stop-color="#2b98f7"/><stop id="e8fjLN6o1Da6-fill-1" offset="100%" stop-color="rgba(31,212,246,0)"/></linearGradient><linearGradient id="e8fjLN6o1Da7-fill" x1="297" y1="511.401" x2="312.605" y2="557.208" spreadMethod="pad" gradientUnits="userSpaceOnUse" gradientTransform="translate(0 0)"><stop id="e8fjLN6o1Da7-fill-0" offset="0%" stop-color="#2b98f7"/><stop id="e8fjLN6o1Da7-fill-1" offset="100%" stop-color="rgba(31,212,246,0)"/></linearGradient><linearGradient id="e8fjLN6o1Da8-fill" x1="331" y1="385.82" x2="390.339" y2="459.196" spreadMethod="pad" gradientUnits="userSpaceOnUse" gradientTransform="translate(0 0)"><stop id="e8fjLN6o1Da8-fill-0" offset="0%" stop-color="#2b98f7"/><stop id="e8fjLN6o1Da8-fill-1" offset="100%" stop-color="rgba(31,212,246,0)"/></linearGradient><linearGradient id="e8fjLN6o1Da9-fill" x1="354" y1="407.566" x2="400.161" y2="476.824" spreadMethod="pad" gradientUnits="userSpaceOnUse" gradientTransform="translate(0 0)"><stop id="e8fjLN6o1Da9-fill-0" offset="0%" stop-color="#2b98f7"/><stop id="e8fjLN6o1Da9-fill-1" offset="100%" stop-color="rgba(31,212,246,0)"/></linearGradient><linearGradient id="e8fjLN6o1Da10-fill" x1="377" y1="427.5" x2="410.509" y2="489.998" spreadMethod="pad" gradientUnits="userSpaceOnUse" gradientTransform="translate(0 0)"><stop id="e8fjLN6o1Da10-fill-0" offset="0%" stop-color="#2b98f7"/><stop id="e8fjLN6o1Da10-fill-1" offset="100%" stop-color="rgba(31,212,246,0)"/></linearGradient><linearGradient id="e8fjLN6o1Da11-fill" x1="308" y1="457.401" x2="323.605" y2="503.208" spreadMethod="pad" gradientUnits="userSpaceOnUse" gradientTransform="translate(0 0)"><stop id="e8fjLN6o1Da11-fill-0" offset="0%" stop-color="#2b98f7"/><stop id="e8fjLN6o1Da11-fill-1" offset="100%" stop-color="rgba(31,212,246,0)"/></linearGradient><linearGradient id="e8fjLN6o1Da13-fill" x1="48" y1="448.82" x2="-11.3385" y2="522.196" spreadMethod="pad" gradientUnits="userSpaceOnUse" gradientTransform="translate(0 0)"><stop id="e8fjLN6o1Da13-fill-0" offset="0%" stop-color="#2b98f7"/><stop id="e8fjLN6o1Da13-fill-1" offset="100%" stop-color="rgba(31,212,246,0)"/></linearGradient><linearGradient id="e8fjLN6o1Da14-fill" x1="25" y1="470.566" x2="-21.1606" y2="539.824" spreadMethod="pad" gradientUnits="userSpaceOnUse" gradientTransform="translate(0 0)"><stop id="e8fjLN6o1Da14-fill-0" offset="0%" stop-color="#2b98f7"/><stop id="e8fjLN6o1Da14-fill-1" offset="100%" stop-color="rgba(31,212,246,0)"/></linearGradient><linearGradient id="e8fjLN6o1Da15-fill" x1="2" y1="490.5" x2="-31.509" y2="552.998" spreadMethod="pad" gradientUnits="userSpaceOnUse" gradientTransform="translate(0 0)"><stop id="e8fjLN6o1Da15-fill-0" offset="0%" stop-color="#2b98f7"/><stop id="e8fjLN6o1Da15-fill-1" offset="100%" stop-color="rgba(31,212,246,0)"/></linearGradient><linearGradient id="e8fjLN6o1Da16-fill" x1="71" y1="520.401" x2="55.3953" y2="566.208" spreadMethod="pad" gradientUnits="userSpaceOnUse" gradientTransform="translate(0 0)"><stop id="e8fjLN6o1Da16-fill-0" offset="0%" stop-color="#2b98f7"/><stop id="e8fjLN6o1Da16-fill-1" offset="100%" stop-color="rgba(31,212,246,0)"/></linearGradient><linearGradient id="e8fjLN6o1Da17-fill" x1="61" y1="393.82" x2="1.66146" y2="467.196" spreadMethod="pad" gradientUnits="userSpaceOnUse" gradientTransform="translate(0 0)"><stop id="e8fjLN6o1Da17-fill-0" offset="0%" stop-color="#2b98f7"/><stop id="e8fjLN6o1Da17-fill-1" offset="100%" stop-color="rgba(31,212,246,0)"/></linearGradient><linearGradient id="e8fjLN6o1Da18-fill" x1="38" y1="415.566" x2="-8.16063" y2="484.824" spreadMethod="pad" gradientUnits="userSpaceOnUse" gradientTransform="translate(0 0)"><stop id="e8fjLN6o1Da18-fill-0" offset="0%" stop-color="#2b98f7"/><stop id="e8fjLN6o1Da18-fill-1" offset="100%" stop-color="rgba(31,212,246,0)"/></linearGradient><linearGradient id="e8fjLN6o1Da19-fill" x1="15" y1="435.5" x2="-18.509" y2="497.998" spreadMethod="pad" gradientUnits="userSpaceOnUse" gradientTransform="translate(0 0)"><stop id="e8fjLN6o1Da19-fill-0" offset="0%" stop-color="#2b98f7"/><stop id="e8fjLN6o1Da19-fill-1" offset="100%" stop-color="rgba(31,212,246,0)"/></linearGradient><linearGradient id="e8fjLN6o1Da20-fill" x1="84" y1="465.401" x2="68.3953" y2="511.208" spreadMethod="pad" gradientUnits="userSpaceOnUse" gradientTransform="translate(0 0)"><stop id="e8fjLN6o1Da20-fill-0" offset="0%" stop-color="#2b98f7"/><stop id="e8fjLN6o1Da20-fill-1" offset="100%" stop-color="rgba(31,212,246,0)"/></linearGradient></defs><g transform="matrix(.908437 0 0 0.908437 117.851192 39.040153)"><g id="e8fjLN6o1Da3_to" transform="translate(358.015836,513.25)"><g id="e8fjLN6o1Da3" transform="translate(-336,-468.25)" opacity="0"><path d="M316,430c0-1.657,1.343-3,3-3s3,1.343,3,3c0,1.486-1.081,2.72-2.5,2.959v130.041c0,.276-.224.5-.5.5s-.5-.224-.5-.5v-130.041c-1.419-.238-2.5-1.472-2.5-2.959Z" clip-rule="evenodd" fill="url(#e8fjLN6o1Da4-fill)" fill-rule="evenodd"/><path d="M339,454c0-1.657,1.343-3,3-3s3,1.343,3,3c0,1.487-1.082,2.721-2.502,2.959.001.013.002.027.002.041v106c0,.276-.224.5-.5.5s-.5-.224-.5-.5v-106c0-.014.001-.028.002-.041-1.42-.238-2.502-1.472-2.502-2.959Z" clip-rule="evenodd" fill="url(#e8fjLN6o1Da5-fill)" fill-rule="evenodd"/><path d="M362,476c0-1.657,1.343-3,3-3s3,1.343,3,3c0,1.486-1.081,2.72-2.5,2.959v84.041c0,.276-.224.5-.5.5s-.5-.224-.5-.5v-84.041c-1.419-.239-2.5-1.472-2.5-2.959Z" clip-rule="evenodd" fill="url(#e8fjLN6o1Da6-fill)" fill-rule="evenodd"/><path d="M293,509c0-1.657,1.343-3,3-3s3,1.343,3,3c0,1.487-1.082,2.721-2.502,2.959.001.013.002.027.002.041v51c0,.276-.224.5-.5.5s-.5-.224-.5-.5v-51c0-.014.001-.028.002-.041-1.42-.238-2.502-1.472-2.502-2.959Z" clip-rule="evenodd" fill="url(#e8fjLN6o1Da7-fill)" fill-rule="evenodd"/><path d="M327,376c0-1.657,1.343-3,3-3s3,1.343,3,3c0,1.486-1.081,2.72-2.5,2.959v130.041c0,.276-.224.5-.5.5s-.5-.224-.5-.5v-130.041c-1.419-.238-2.5-1.472-2.5-2.959Z" clip-rule="evenodd" fill="url(#e8fjLN6o1Da8-fill)" fill-rule="evenodd"/><path d="M350,400c0-1.657,1.343-3,3-3s3,1.343,3,3c0,1.487-1.082,2.721-2.502,2.959.001.013.002.027.002.041v106c0,.276-.224.5-.5.5s-.5-.224-.5-.5v-106c0-.014.001-.028.002-.041-1.42-.238-2.502-1.472-2.502-2.959Z" clip-rule="evenodd" fill="url(#e8fjLN6o1Da9-fill)" fill-rule="evenodd"/><path d="M373,422c0-1.657,1.343-3,3-3s3,1.343,3,3c0,1.486-1.081,2.72-2.5,2.959v84.041c0,.276-.224.5-.5.5s-.5-.224-.5-.5v-84.041c-1.419-.239-2.5-1.472-2.5-2.959Z" clip-rule="evenodd" fill="url(#e8fjLN6o1Da10-fill)" fill-rule="evenodd"/><path d="M304,455c0-1.657,1.343-3,3-3s3,1.343,3,3c0,1.487-1.082,2.721-2.502,2.959.001.013.002.027.002.041v51c0,.276-.224.5-.5.5s-.5-.224-.5-.5v-51c0-.014.001-.028.002-.041-1.42-.238-2.502-1.472-2.502-2.959Z" clip-rule="evenodd" fill="url(#e8fjLN6o1Da11-fill)" fill-rule="evenodd"/></g></g><g id="e8fjLN6o1Da12_to" transform="translate(-11.03959,521.75)"><g id="e8fjLN6o1Da12" transform="translate(-44,-476.75)" opacity="0"><path d="M52,439c0-1.657-1.3432-3-3-3-1.6569,0-3,1.343-3,3c0,1.486,1.0811,2.72,2.5,2.959v130.041c0,.276.2238.5.5.5.2761,0,.5-.224.5-.5v-130.041c1.4188-.238,2.5-1.472,2.5-2.959Z" clip-rule="evenodd" fill="url(#e8fjLN6o1Da13-fill)" fill-rule="evenodd"/><path d="M29,463c0-1.657-1.3432-3-3-3s-3,1.343-3,3c0,1.487,1.082,2.721,2.5017,2.959-.0011.013-.0017.027-.0017.041v106c0,.276.2238.5.5.5s.5-.224.5-.5v-106c0-.014-.0006-.028-.0017-.041C27.918,465.721,29,464.487,29,463Z" clip-rule="evenodd" fill="url(#e8fjLN6o1Da14-fill)" fill-rule="evenodd"/><path d="M6,485c0-1.657-1.34315-3-3-3s-3.000004,1.343-3.000004,3c0,1.486,1.081134,2.72,2.499974,2.959L2.49998,572c0,.276.22385.5.5.5s.5-.224.5-.5l-.00001-84.041C4.91884,487.72,6,486.487,6,485Z" clip-rule="evenodd" fill="url(#e8fjLN6o1Da15-fill)" fill-rule="evenodd"/><path d="M75,518c0-1.657-1.3431-3-3-3s-3,1.343-3,3c0,1.487,1.082,2.721,2.5017,2.959-.0011.013-.0017.027-.0017.041v51c0,.276.2238.5.5.5.2761,0,.5-.224.5-.5v-51c0-.014-.0006-.028-.0017-.041C73.918,520.721,75,519.487,75,518Z" clip-rule="evenodd" fill="url(#e8fjLN6o1Da16-fill)" fill-rule="evenodd"/><path d="M65,384c0-1.657-1.3432-3-3-3-1.6569,0-3,1.343-3,3c0,1.486,1.0811,2.72,2.5,2.959v130.041c0,.276.2238.5.5.5.2761,0,.5-.224.5-.5v-130.041c1.4188-.238,2.5-1.472,2.5-2.959Z" clip-rule="evenodd" fill="url(#e8fjLN6o1Da17-fill)" fill-rule="evenodd"/><path d="M42,408c0-1.657-1.3432-3-3-3-1.6569,0-3,1.343-3,3c0,1.487,1.082,2.721,2.5017,2.959-.0011.013-.0017.027-.0017.041v106c0,.276.2238.5.5.5.2761,0,.5-.224.5-.5v-106c0-.014-.0006-.028-.0017-.041C40.918,410.721,42,409.487,42,408Z" clip-rule="evenodd" fill="url(#e8fjLN6o1Da18-fill)" fill-rule="evenodd"/><path d="M19,430c0-1.657-1.3431-3-3-3s-3,1.343-3,3c0,1.486,1.0811,2.72,2.5,2.959v84.041c0,.276.2238.5.5.5s.5-.224.5-.5v-84.041c1.4188-.239,2.5-1.472,2.5-2.959Z" clip-rule="evenodd" fill="url(#e8fjLN6o1Da19-fill)" fill-rule="evenodd"/><path d="M88,463c0-1.657-1.3431-3-3-3s-3,1.343-3,3c0,1.487,1.082,2.721,2.5017,2.959-.0011.013-.0017.027-.0017.041v51c0,.276.2238.5.5.5.2761,0,.5-.224.5-.5v-51c0-.014-.0006-.028-.0017-.041C86.918,465.721,88,464.487,88,463Z" clip-rule="evenodd" fill="url(#e8fjLN6o1Da20-fill)" fill-rule="evenodd"/></g></g><g id="e8fjLN6o1Da21_to" transform="translate(184.227406,178.46669)"><g transform="translate(-212.227406,-135.46669)"><path d="M97.285,91.1881c1.4995,0,2.715-1.2156,2.715-2.7151c0-1.4996-1.2155-2.7152-2.715-2.7152-1.4996,0-2.7152,1.2156-2.7152,2.7152c0,1.4995,1.2156,2.7151,2.7152,2.7151Z" fill="none" stroke="#0060e4" stroke-width="0.75" stroke-miterlimit="10"/><path d="M132.843,89.798c1.499,0,2.715-1.2156,2.715-2.7152s-1.216-2.7151-2.715-2.7151c-1.5,0-2.716,1.2156-2.716,2.7151s1.216,2.7152,2.716,2.7152Z" fill="none" stroke="#0060e4" stroke-width="0.75" stroke-miterlimit="10"/><path d="M93.5382,108.066c1.4995,0,2.7151-1.216,2.7151-2.716c0-1.499-1.2156-2.715-2.7151-2.715-1.4996,0-2.7152,1.216-2.7152,2.715c0,1.5,1.2156,2.716,2.7152,2.716Z" fill="none" stroke="#0060e4" stroke-width="0.75" stroke-miterlimit="10"/><path d="M136.481,97.672c1.5,0,2.715-1.2156,2.715-2.7151c0-1.4996-1.215-2.7152-2.715-2.7152s-2.715,1.2156-2.715,2.7152c0,1.4995,1.215,2.7151,2.715,2.7151Z" fill="none" stroke="#0060e4" stroke-width="0.75" stroke-miterlimit="10"/><path d="M146.679,82.0431c1.5,0,2.715-1.2156,2.715-2.7151c0-1.4996-1.215-2.7152-2.715-2.7152-1.499,0-2.715,1.2156-2.715,2.7152c0,1.4995,1.216,2.7151,2.715,2.7151Z" fill="none" stroke="#0060e4" stroke-width="0.75" stroke-miterlimit="10"/><path d="M127.629,78.7091c1.5,0,2.716-1.2156,2.716-2.7151c0-1.4996-1.216-2.7152-2.716-2.7152-1.499,0-2.715,1.2156-2.715,2.7152c0,1.4995,1.216,2.7151,2.715,2.7151Z" fill="none" stroke="#0060e4" stroke-width="0.75" stroke-miterlimit="10"/><path d="M141.52,56.3903c1.5,0,2.716-1.2156,2.716-2.7152c0-1.4995-1.216-2.7151-2.716-2.7151-1.499,0-2.715,1.2156-2.715,2.7151c0,1.4996,1.216,2.7152,2.715,2.7152Z" fill="none" stroke="#0060e4" stroke-width="0.75" stroke-miterlimit="10"/><path d="M148.612,65.568c1.5,0,2.716-1.2156,2.716-2.7151s-1.216-2.7152-2.716-2.7152c-1.499,0-2.715,1.2156-2.715,2.7152s1.216,2.7151,2.715,2.7151Z" fill="none" stroke="#0060e4" stroke-width="0.75" stroke-miterlimit="10"/><path d="M158.43,65.568c1.5,0,2.716-1.2156,2.716-2.7151s-1.216-2.7152-2.716-2.7152c-1.499,0-2.715,1.2156-2.715,2.7152s1.216,2.7151,2.715,2.7151Z" fill="none" stroke="#0060e4" stroke-width="0.75" stroke-miterlimit="10"/><path d="M161.146,53.4254c1.499,0,2.715-1.2156,2.715-2.7151s-1.216-2.7152-2.715-2.7152c-1.5,0-2.716,1.2156-2.716,2.7152s1.216,2.7151,2.716,2.7151Z" fill="none" stroke="#0060e4" stroke-width="0.75" stroke-miterlimit="10"/><path d="M146.679,97.672c1.5,0,2.715-1.2156,2.715-2.7151c0-1.4996-1.215-2.7152-2.715-2.7152-1.499,0-2.715,1.2156-2.715,2.7152c0,1.4995,1.216,2.7151,2.715,2.7151Z" fill="none" stroke="#0060e4" stroke-width="0.75" stroke-miterlimit="10"/><path d="M156.867,102.548c1.499,0,2.715-1.216,2.715-2.7152c0-1.4995-1.216-2.7151-2.715-2.7151-1.5,0-2.716,1.2156-2.716,2.7151c0,1.4992,1.216,2.7152,2.716,2.7152Z" fill="none" stroke="#0060e4" stroke-width="0.75" stroke-miterlimit="10"/><path d="M140.641,115.299c1.499,0,2.715-1.216,2.715-2.715c0-1.5-1.216-2.715-2.715-2.715-1.5,0-2.715,1.215-2.715,2.715c0,1.499,1.215,2.715,2.715,2.715Z" fill="none" stroke="#0060e4" stroke-width="0.75" stroke-miterlimit="10"/><path d="M166.685,102.548c1.499,0,2.715-1.216,2.715-2.7152c0-1.4995-1.216-2.7151-2.715-2.7151-1.5,0-2.716,1.2156-2.716,2.7151c0,1.4992,1.216,2.7152,2.716,2.7152Z" fill="none" stroke="#0060e4" stroke-width="0.75" stroke-miterlimit="10"/><path d="M146.071,129.874c1.5,0,2.715-1.216,2.715-2.715c0-1.5-1.215-2.716-2.715-2.716-1.499,0-2.715,1.216-2.715,2.716c0,1.499,1.216,2.715,2.715,2.715Z" fill="none" stroke="#0060e4" stroke-width="0.75" stroke-miterlimit="10"/><path d="M169.541,131.275c1.499,0,2.715-1.216,2.715-2.716c0-1.499-1.216-2.715-2.715-2.715-1.5,0-2.715,1.216-2.715,2.715c0,1.5,1.215,2.716,2.715,2.716Z" fill="none" stroke="#0060e4" stroke-width="0.75" stroke-miterlimit="10"/><path d="M197.04,124.444c1.5,0,2.715-1.216,2.715-2.716c0-1.499-1.215-2.715-2.715-2.715-1.499,0-2.715,1.216-2.715,2.715c0,1.5,1.216,2.716,2.715,2.716Z" fill="none" stroke="#0060e4" stroke-width="0.75" stroke-miterlimit="10"/><path d="M134.407,125.812c1.499,0,2.715-1.216,2.715-2.715c0-1.5-1.216-2.716-2.715-2.716-1.5,0-2.716,1.216-2.716,2.716c0,1.499,1.216,2.715,2.716,2.715Z" fill="none" stroke="#0060e4" stroke-width="0.75" stroke-miterlimit="10"/><path d="M133.766,133.99c1.499,0,2.715-1.216,2.715-2.715c0-1.5-1.216-2.715-2.715-2.715-1.5,0-2.715,1.215-2.715,2.715c0,1.499,1.215,2.715,2.715,2.715Z" fill="none" stroke="#0060e4" stroke-width="0.75" stroke-miterlimit="10"/><path d="M126.935,163.585c1.499,0,2.715-1.216,2.715-2.715c0-1.5-1.216-2.715-2.715-2.715-1.5,0-2.716,1.215-2.716,2.715c0,1.499,1.216,2.715,2.716,2.715Z" fill="none" stroke="#0060e4" stroke-width="0.75" stroke-miterlimit="10"/><path d="M127.629,173.848c1.5,0,2.716-1.215,2.716-2.715c0-1.499-1.216-2.715-2.716-2.715-1.499,0-2.715,1.216-2.715,2.715c0,1.5,1.216,2.715,2.715,2.715Z" fill="none" stroke="#0060e4" stroke-width="0.75" stroke-miterlimit="10"/><path d="M104.822,199.002c1.5,0,2.715-1.216,2.715-2.716c0-1.499-1.215-2.715-2.715-2.715-1.499,0-2.715,1.216-2.715,2.715c0,1.5,1.216,2.716,2.715,2.716Z" fill="none" stroke="#0060e4" stroke-width="0.75" stroke-miterlimit="10"/><path d="M161.971,181.082c1.5,0,2.715-1.216,2.715-2.715c0-1.5-1.215-2.716-2.715-2.716s-2.715,1.216-2.715,2.716c0,1.499,1.215,2.715,2.715,2.715Z" fill="none" stroke="#0060e4" stroke-width="0.75" stroke-miterlimit="10"/><path d="M161.971,255.694c1.5,0,2.715-1.215,2.715-2.715c0-1.499-1.215-2.715-2.715-2.715s-2.715,1.216-2.715,2.715c0,1.5,1.215,2.715,2.715,2.715Z" fill="none" stroke="#0060e4" stroke-width="0.75" stroke-miterlimit="10"/><path d="M150.676,248.983c1.5,0,2.715-1.216,2.715-2.716c0-1.499-1.215-2.715-2.715-2.715-1.499,0-2.715,1.216-2.715,2.715c0,1.5,1.216,2.716,2.715,2.716Z" fill="none" stroke="#0060e4" stroke-width="0.75" stroke-miterlimit="10"/><path d="M112.664,211.469c1.499,0,2.715-1.215,2.715-2.715c0-1.499-1.216-2.715-2.715-2.715-1.5,0-2.715,1.216-2.715,2.715c0,1.5,1.215,2.715,2.715,2.715Z" fill="none" stroke="#0060e4" stroke-width="0.75" stroke-miterlimit="10"/><path d="M175.862,173.848c1.499,0,2.715-1.215,2.715-2.715c0-1.499-1.216-2.715-2.715-2.715-1.5,0-2.715,1.216-2.715,2.715c0,1.5,1.215,2.715,2.715,2.715Z" fill="none" stroke="#0060e4" stroke-width="0.75" stroke-miterlimit="10"/><path d="M260.847,267.63c1.499,0,2.715-1.216,2.715-2.715c0-1.5-1.216-2.715-2.715-2.715-1.5,0-2.716,1.215-2.716,2.715c0,1.499,1.216,2.715,2.716,2.715Z" fill="none" stroke="#0060e4" stroke-width="0.75" stroke-miterlimit="10"/><path d="M239.831,270.345c1.499,0,2.715-1.215,2.715-2.715c0-1.499-1.216-2.715-2.715-2.715-1.5,0-2.715,1.216-2.715,2.715c0,1.5,1.215,2.715,2.715,2.715Z" fill="none" stroke="#0060e4" stroke-width="0.75" stroke-miterlimit="10"/><path d="M205.316,133.338c1.499,0,2.715-1.216,2.715-2.715c0-1.5-1.216-2.715-2.715-2.715-1.5,0-2.715,1.215-2.715,2.715c0,1.499,1.215,2.715,2.715,2.715Z" fill="none" stroke="#0060e4" stroke-width="0.75" stroke-miterlimit="10"/><path d="M164.48,140.604c1.499,0,2.715-1.216,2.715-2.715c0-1.5-1.216-2.716-2.715-2.716-1.5,0-2.715,1.216-2.715,2.716c0,1.499,1.215,2.715,2.715,2.715Z" fill="none" stroke="#0060e4" stroke-width="0.75" stroke-miterlimit="10"/><path d="M149.394,109.868c1.5,0,2.716-1.215,2.716-2.715c0-1.499-1.216-2.715-2.716-2.715-1.499,0-2.715,1.216-2.715,2.715c0,1.5,1.216,2.715,2.715,2.715Z" fill="none" stroke="#0060e4" stroke-width="0.75" stroke-miterlimit="10"/><path d="M184.442,124.444c1.499,0,2.715-1.216,2.715-2.716c0-1.499-1.216-2.715-2.715-2.715-1.5,0-2.715,1.216-2.715,2.715c0,1.5,1.215,2.716,2.715,2.716Z" fill="none" stroke="#0060e4" stroke-width="0.75" stroke-miterlimit="10"/><path d="M190.122,107.761c1.499,0,2.715-1.215,2.715-2.715c0-1.499-1.216-2.715-2.715-2.715-1.5,0-2.716,1.216-2.716,2.715c0,1.5,1.216,2.715,2.716,2.715Z" fill="none" stroke="#0060e4" stroke-width="0.75" stroke-miterlimit="10"/><path d="M190.122,75.2448c1.499,0,2.715-1.2156,2.715-2.7152c0-1.4995-1.216-2.7151-2.715-2.7151-1.5,0-2.716,1.2156-2.716,2.7151c0,1.4996,1.216,2.7152,2.716,2.7152Z" fill="none" stroke="#0060e4" stroke-width="0.75" stroke-miterlimit="10"/><path d="M263.801,34.756c1.499,0,2.715-1.2156,2.715-2.7152c0-1.4995-1.216-2.7151-2.715-2.7151-1.5,0-2.716,1.2156-2.716,2.7151c0,1.4996,1.216,2.7152,2.716,2.7152Z" fill="none" stroke="#0060e4" stroke-width="0.75" stroke-miterlimit="10"/><path d="M291.202,55.0006c1.5,0,2.715-1.2156,2.715-2.7151c0-1.4996-1.215-2.7152-2.715-2.7152s-2.715,1.2156-2.715,2.7152c0,1.4995,1.215,2.7151,2.715,2.7151Z" fill="none" stroke="#0060e4" stroke-width="0.75" stroke-miterlimit="10"/><path d="M309.057,81.5763c1.499,0,2.715-1.2156,2.715-2.7151c0-1.4996-1.216-2.7152-2.715-2.7152-1.5,0-2.715,1.2156-2.715,2.7152c0,1.4995,1.215,2.7151,2.715,2.7151Z" fill="none" stroke="#0060e4" stroke-width="0.75" stroke-miterlimit="10"/><path d="M278.756,99.9201c1.499,0,2.715-1.2156,2.715-2.7152c0-1.4995-1.216-2.7152-2.715-2.7152-1.5,0-2.715,1.2157-2.715,2.7152c0,1.4996,1.215,2.7152,2.715,2.7152Z" fill="none" stroke="#0060e4" stroke-width="0.75" stroke-miterlimit="10"/><path d="M330.083,106.773c1.5,0,2.715-1.216,2.715-2.715c0-1.5-1.215-2.715-2.715-2.715-1.499,0-2.715,1.215-2.715,2.715c0,1.499,1.216,2.715,2.715,2.715Z" fill="none" stroke="#0060e4" stroke-width="0.75" stroke-miterlimit="10"/><path d="M332.451,114.756c1.499,0,2.715-1.216,2.715-2.716c0-1.499-1.216-2.715-2.715-2.715-1.5,0-2.715,1.216-2.715,2.715c0,1.5,1.215,2.716,2.715,2.716Z" fill="none" stroke="#0060e4" stroke-width="0.75" stroke-miterlimit="10"/><path d="M332.451,127.832c1.499,0,2.715-1.215,2.715-2.715s-1.216-2.715-2.715-2.715c-1.5,0-2.715,1.215-2.715,2.715s1.215,2.715,2.715,2.715Z" fill="none" stroke="#0060e4" stroke-width="0.75" stroke-miterlimit="10"/><path d="M220.934,34.756c1.499,0,2.715-1.2156,2.715-2.7152c0-1.4995-1.216-2.7151-2.715-2.7151-1.5,0-2.715,1.2156-2.715,2.7151c0,1.4996,1.215,2.7152,2.715,2.7152Z" fill="none" stroke="#0060e4" stroke-width="0.75" stroke-miterlimit="10"/><path d="M198.256,29.3258c1.5,0,2.716-1.2156,2.716-2.7151c0-1.4996-1.216-2.7152-2.716-2.7152-1.499,0-2.715,1.2156-2.715,2.7152c0,1.4995,1.216,2.7151,2.715,2.7151Z" fill="none" stroke="#0060e4" stroke-width="0.75" stroke-miterlimit="10"/><path d="M245.381,20.5719c1.499,0,2.715-1.2156,2.715-2.7151s-1.216-2.7152-2.715-2.7152c-1.5,0-2.715,1.2156-2.715,2.7152s1.215,2.7151,2.715,2.7151Z" fill="none" stroke="#0060e4" stroke-width="0.75" stroke-miterlimit="10"/><path d="M235.975,51.1559c1.5,0,2.716-1.2156,2.716-2.7152c0-1.4995-1.216-2.7151-2.716-2.7151-1.499,0-2.715,1.2156-2.715,2.7151c0,1.4996,1.216,2.7152,2.715,2.7152Z" fill="none" stroke="#0060e4" stroke-width="0.75" stroke-miterlimit="10"/><path d="M287.249,66.2521c1.499,0,2.715-1.2156,2.715-2.7152s-1.216-2.7151-2.715-2.7151c-1.5,0-2.715,1.2156-2.715,2.7151s1.215,2.7152,2.715,2.7152Z" fill="none" stroke="#0060e4" stroke-width="0.75" stroke-miterlimit="10"/><path d="M265.126,70.8136c1.499,0,2.715-1.2156,2.715-2.7151c0-1.4996-1.216-2.7152-2.715-2.7152-1.5,0-2.716,1.2156-2.716,2.7152c0,1.4995,1.216,2.7151,2.716,2.7151Z" fill="none" stroke="#0060e4" stroke-width="0.75" stroke-miterlimit="10"/><path d="M223.649,85.9752c1.499,0,2.715-1.2156,2.715-2.7151s-1.216-2.7152-2.715-2.7152c-1.5,0-2.715,1.2156-2.715,2.7152s1.215,2.7151,2.715,2.7151Z" fill="none" stroke="#0060e4" stroke-width="0.75" stroke-miterlimit="10"/><path d="M232.239,90.797c1.5,0,2.715-1.2156,2.715-2.7151c0-1.4996-1.215-2.7152-2.715-2.7152-1.499,0-2.715,1.2156-2.715,2.7152c0,1.4995,1.216,2.7151,2.715,2.7151Z" fill="none" stroke="#0060e4" stroke-width="0.75" stroke-miterlimit="10"/><path d="M237.235,76.2438c1.5,0,2.716-1.2156,2.716-2.7152c0-1.4995-1.216-2.7151-2.716-2.7151-1.499,0-2.715,1.2156-2.715,2.7151c0,1.4996,1.216,2.7152,2.715,2.7152Z" fill="none" stroke="#0060e4" stroke-width="0.75" stroke-miterlimit="10"/><path d="M253.592,61.571c1.499,0,2.715-1.2157,2.715-2.7152c0-1.4996-1.216-2.7152-2.715-2.7152-1.5,0-2.716,1.2156-2.716,2.7152c0,1.4995,1.216,2.7152,2.716,2.7152Z" fill="none" stroke="#0060e4" stroke-width="0.75" stroke-miterlimit="10"/><path d="M270.426,61.571c1.499,0,2.715-1.2157,2.715-2.7152c0-1.4996-1.216-2.7152-2.715-2.7152-1.5,0-2.716,1.2156-2.716,2.7152c0,1.4995,1.216,2.7152,2.716,2.7152Z" fill="none" stroke="#0060e4" stroke-width="0.75" stroke-miterlimit="10"/><path d="M282.752,76.6129c1.5,0,2.715-1.2156,2.715-2.7151c0-1.4996-1.215-2.7152-2.715-2.7152-1.499,0-2.715,1.2156-2.715,2.7152c0,1.4995,1.216,2.7151,2.715,2.7151Z" fill="none" stroke="#0060e4" stroke-width="0.75" stroke-miterlimit="10"/><path d="M307.504,96.9875c1.499,0,2.715-1.2157,2.715-2.7152c0-1.4996-1.216-2.7152-2.715-2.7152-1.5,0-2.715,1.2156-2.715,2.7152c0,1.4995,1.215,2.7152,2.715,2.7152Z" fill="none" stroke="#0060e4" stroke-width="0.75" stroke-miterlimit="10"/><path d="M317.756,100.083c1.5,0,2.715-1.216,2.715-2.7155s-1.215-2.7152-2.715-2.7152c-1.499,0-2.715,1.2157-2.715,2.7152s1.216,2.7155,2.715,2.7155Z" fill="none" stroke="#0060e4" stroke-width="0.75" stroke-miterlimit="10"/><path d="M295.253,75.8527c1.5,0,2.715-1.2156,2.715-2.7152c0-1.4995-1.215-2.7151-2.715-2.7151s-2.715,1.2156-2.715,2.7151c0,1.4996,1.215,2.7152,2.715,2.7152Z" fill="none" stroke="#0060e4" stroke-width="0.75" stroke-miterlimit="10"/><path d="M234.955,27.3058c1.499,0,2.715-1.2156,2.715-2.7151s-1.216-2.7152-2.715-2.7152c-1.5,0-2.715,1.2156-2.715,2.7152s1.215,2.7151,2.715,2.7151Z" fill="none" stroke="#0060e4" stroke-width="0.75" stroke-miterlimit="10"/><path d="M273.803,45.6706c1.5,0,2.715-1.2157,2.715-2.7152s-1.215-2.7152-2.715-2.7152c-1.499,0-2.715,1.2156-2.715,2.7152s1.216,2.7152,2.715,2.7152Z" fill="none" stroke="#0060e4" stroke-width="0.75" stroke-miterlimit="10"/><path d="M280.037,36.7873c1.5,0,2.715-1.2157,2.715-2.7152s-1.215-2.7152-2.715-2.7152c-1.499,0-2.715,1.2157-2.715,2.7152s1.216,2.7152,2.715,2.7152Z" fill="none" stroke="#0060e4" stroke-width="0.75" stroke-miterlimit="10"/><path d="M252.31,42.9557c1.499,0,2.715-1.2156,2.715-2.7151c0-1.4996-1.216-2.7152-2.715-2.7152-1.5,0-2.715,1.2156-2.715,2.7152c0,1.4995,1.215,2.7151,2.715,2.7151Z" fill="none" stroke="#0060e4" stroke-width="0.75" stroke-miterlimit="10"/><path d="M229.079,58.8556c1.499,0,2.715-1.2156,2.715-2.7151c0-1.4996-1.216-2.7152-2.715-2.7152-1.5,0-2.715,1.2156-2.715,2.7152c0,1.4995,1.215,2.7151,2.715,2.7151Z" fill="none" stroke="#0060e4" stroke-width="0.75" stroke-miterlimit="10"/><path d="M196.269,36.7873c1.5,0,2.715-1.2157,2.715-2.7152s-1.215-2.7152-2.715-2.7152c-1.499,0-2.715,1.2157-2.715,2.7152s1.216,2.7152,2.715,2.7152Z" fill="none" stroke="#0060e4" stroke-width="0.75" stroke-miterlimit="10"/><path d="M258.055,79.3283c1.5,0,2.715-1.2156,2.715-2.7152c0-1.4995-1.215-2.7152-2.715-2.7152-1.499,0-2.715,1.2157-2.715,2.7152c0,1.4996,1.216,2.7152,2.715,2.7152Z" fill="none" stroke="#0060e4" stroke-width="0.75" stroke-miterlimit="10"/><path d="M270.816,90.7972c1.644,0,2.976-1.4393,2.976-3.2148s-1.332-3.2147-2.976-3.2147c-1.643,0-2.975,1.4393-2.975,3.2147s1.332,3.2148,2.975,3.2148Z" fill="none" stroke="#0060e4" stroke-width="0.75" stroke-miterlimit="10"/><path d="M243.545,102.635c1.5,0,2.716-1.216,2.716-2.7152c0-1.4996-1.216-2.7152-2.716-2.7152-1.499,0-2.715,1.2156-2.715,2.7152c0,1.4992,1.216,2.7152,2.715,2.7152Z" fill="none" stroke="#0060e4" stroke-width="0.75" stroke-miterlimit="10"/><path d="M298.739,89.6457c1.5,0,2.715-1.2157,2.715-2.7152s-1.215-2.7152-2.715-2.7152c-1.499,0-2.715,1.2157-2.715,2.7152s1.216,2.7152,2.715,2.7152Z" fill="none" stroke="#0060e4" stroke-width="0.75" stroke-miterlimit="10"/><path d="M322.47,92.361c1.499,0,2.715-1.2156,2.715-2.7152c0-1.4995-1.216-2.7151-2.715-2.7151-1.5,0-2.715,1.2156-2.715,2.7151c0,1.4996,1.215,2.7152,2.715,2.7152Z" fill="none" stroke="#0060e4" stroke-width="0.75" stroke-miterlimit="10"/><path d="M293.917,44.7585c1.5,0,2.715-1.2157,2.715-2.7152c0-1.4996-1.215-2.7152-2.715-2.7152-1.499,0-2.715,1.2156-2.715,2.7152c0,1.4995,1.216,2.7152,2.715,2.7152Z" fill="none" stroke="#0060e4" stroke-width="0.75" stroke-miterlimit="10"/><path d="M340.27,102.635c1.5,0,2.716-1.216,2.716-2.7152c0-1.4996-1.216-2.7152-2.716-2.7152-1.499,0-2.715,1.2156-2.715,2.7152c0,1.4992,1.216,2.7152,2.715,2.7152Z" fill="none" stroke="#0060e4" stroke-width="0.75" stroke-miterlimit="10"/><path d="M337.914,137.292c1.499,0,2.715-1.216,2.715-2.716c0-1.499-1.216-2.715-2.715-2.715-1.5,0-2.716,1.216-2.716,2.715c0,1.5,1.216,2.716,2.716,2.716Z" fill="none" stroke="#0060e4" stroke-width="0.75" stroke-miterlimit="10"/><path d="M320.471,127.832c1.5,0,2.715-1.215,2.715-2.715s-1.215-2.715-2.715-2.715c-1.499,0-2.715,1.215-2.715,2.715s1.216,2.715,2.715,2.715Z" fill="none" stroke="#0060e4" stroke-width="0.75" stroke-miterlimit="10"/><path d="M297.968,117.471c1.5,0,2.715-1.216,2.715-2.715c0-1.5-1.215-2.715-2.715-2.715-1.499,0-2.715,1.215-2.715,2.715c0,1.499,1.216,2.715,2.715,2.715Z" fill="none" stroke="#0060e4" stroke-width="0.75" stroke-miterlimit="10"/><path d="M161.971,92.5133c1.5,0,2.715-1.2156,2.715-2.7151s-1.215-2.7152-2.715-2.7152-2.715,1.2156-2.715,2.7152s1.215,2.7151,2.715,2.7151Z" fill="none" stroke="#0060e4" stroke-width="0.75" stroke-miterlimit="10"/><path d="M155.715,136.271c1.5,0,2.716-1.216,2.716-2.716c0-1.499-1.216-2.715-2.716-2.715-1.499,0-2.715,1.216-2.715,2.715c0,1.5,1.216,2.716,2.715,2.716Z" fill="none" stroke="#0060e4" stroke-width="0.75" stroke-miterlimit="10"/><path d="M141.52,143.319c1.5,0,2.716-1.216,2.716-2.715c0-1.5-1.216-2.715-2.716-2.715-1.499,0-2.715,1.215-2.715,2.715c0,1.499,1.216,2.715,2.715,2.715Z" fill="none" stroke="#0060e4" stroke-width="0.75" stroke-miterlimit="10"/><path d="M137.926,170.873c1.499,0,2.715-1.216,2.715-2.715c0-1.5-1.216-2.716-2.715-2.716-1.5,0-2.716,1.216-2.716,2.716c0,1.499,1.216,2.715,2.716,2.715Z" fill="none" stroke="#0060e4" stroke-width="0.75" stroke-miterlimit="10"/><path d="M159.256,169.015c1.499,0,2.715-1.215,2.715-2.715c0-1.499-1.216-2.715-2.715-2.715-1.5,0-2.715,1.216-2.715,2.715c0,1.5,1.215,2.715,2.715,2.715Z" fill="none" stroke="#0060e4" stroke-width="0.75" stroke-miterlimit="10"/><path d="M173.744,163.368c1.5,0,2.715-1.216,2.715-2.715c0-1.5-1.215-2.715-2.715-2.715s-2.715,1.215-2.715,2.715c0,1.499,1.215,2.715,2.715,2.715Z" fill="none" stroke="#0060e4" stroke-width="0.75" stroke-miterlimit="10"/><path d="M173.744,144.731c1.5,0,2.715-1.216,2.715-2.715c0-1.5-1.215-2.715-2.715-2.715s-2.715,1.215-2.715,2.715c0,1.499,1.215,2.715,2.715,2.715Z" fill="none" stroke="#0060e4" stroke-width="0.75" stroke-miterlimit="10"/><path d="M205.316,117.471c1.499,0,2.715-1.216,2.715-2.715c0-1.5-1.216-2.715-2.715-2.715-1.5,0-2.715,1.215-2.715,2.715c0,1.499,1.215,2.715,2.715,2.715Z" fill="none" stroke="#0060e4" stroke-width="0.75" stroke-miterlimit="10"/><path d="M161.971,112.584c1.5,0,2.715-1.216,2.715-2.716c0-1.499-1.215-2.715-2.715-2.715s-2.715,1.216-2.715,2.715c0,1.5,1.215,2.716,2.715,2.716Z" fill="none" stroke="#0060e4" stroke-width="0.75" stroke-miterlimit="10"/><path d="M177.263,101.386c1.5,0,2.715-1.215,2.715-2.7148c0-1.4995-1.215-2.7151-2.715-2.7151s-2.715,1.2156-2.715,2.7151c0,1.4998,1.215,2.7148,2.715,2.7148Z" fill="none" stroke="#0060e4" stroke-width="0.75" stroke-miterlimit="10"/><path d="M170.225,65.1442c1.5,0,2.715-1.2156,2.715-2.7152s-1.215-2.7151-2.715-2.7151c-1.499,0-2.715,1.2156-2.715,2.7151s1.216,2.7152,2.715,2.7152Z" fill="none" stroke="#0060e4" stroke-width="0.75" stroke-miterlimit="10"/><path d="M178.577,58.8556c1.5,0,2.715-1.2156,2.715-2.7151c0-1.4996-1.215-2.7152-2.715-2.7152s-2.715,1.2156-2.715,2.7152c0,1.4995,1.215,2.7151,2.715,2.7151Z" fill="none" stroke="#0060e4" stroke-width="0.75" stroke-miterlimit="10"/><path d="M172.941,44.7585c1.499,0,2.715-1.2157,2.715-2.7152c0-1.4996-1.216-2.7152-2.715-2.7152-1.5,0-2.716,1.2156-2.716,2.7152c0,1.4995,1.216,2.7152,2.716,2.7152Z" fill="none" stroke="#0060e4" stroke-width="0.75" stroke-miterlimit="10"/><path d="M136.481,73.1374c1.5,0,2.715-1.2157,2.715-2.7152s-1.215-2.7152-2.715-2.7152-2.715,1.2157-2.715,2.7152s1.215,2.7152,2.715,2.7152Z" fill="none" stroke="#0060e4" stroke-width="0.75" stroke-miterlimit="10"/><path d="M116.975,75.2448c1.5,0,2.716-1.2156,2.716-2.7152c0-1.4995-1.216-2.7151-2.716-2.7151-1.499,0-2.715,1.2156-2.715,2.7151c0,1.4996,1.216,2.7152,2.715,2.7152Z" fill="none" stroke="#0060e4" stroke-width="0.75" stroke-miterlimit="10"/><path d="M135.558,151.117c1.499,0,2.715-1.215,2.715-2.715c0-1.499-1.216-2.715-2.715-2.715-1.5,0-2.715,1.216-2.715,2.715c0,1.5,1.215,2.715,2.715,2.715Z" fill="none" stroke="#0060e4" stroke-width="0.75" stroke-miterlimit="10"/><path d="M214.298,129.211c1.499,0,2.715-1.216,2.715-2.715c0-1.5-1.216-2.715-2.715-2.715-1.5,0-2.715,1.215-2.715,2.715c0,1.499,1.215,2.715,2.715,2.715Z" fill="none" stroke="#0060e4" stroke-width="0.75" stroke-miterlimit="10"/><path d="M250.877,112.584c1.499,0,2.715-1.216,2.715-2.716c0-1.499-1.216-2.715-2.715-2.715-1.5,0-2.716,1.216-2.716,2.715c0,1.5,1.216,2.716,2.716,2.716Z" fill="none" stroke="#0060e4" stroke-width="0.75" stroke-miterlimit="10"/><path d="M260.434,109.488c1.499,0,2.715-1.215,2.715-2.715c0-1.499-1.216-2.715-2.715-2.715-1.5,0-2.715,1.216-2.715,2.715c0,1.5,1.215,2.715,2.715,2.715Z" fill="none" stroke="#0060e4" stroke-width="0.75" stroke-miterlimit="10"/><path d="M246.879,78.7091c1.5,0,2.716-1.2156,2.716-2.7151c0-1.4996-1.216-2.7152-2.716-2.7152-1.499,0-2.715,1.2156-2.715,2.7152c0,1.4995,1.216,2.7151,2.715,2.7151Z" fill="none" stroke="#0060e4" stroke-width="0.75" stroke-miterlimit="10"/><path d="M239.951,63.5368c1.499,0,2.715-1.2156,2.715-2.7152c0-1.4995-1.216-2.7152-2.715-2.7152-1.5,0-2.716,1.2157-2.716,2.7152c0,1.4996,1.216,2.7152,2.716,2.7152Z" fill="none" stroke="#0060e4" stroke-width="0.75" stroke-miterlimit="10"/><path d="M201.026,63.4713c1.499,0,2.715-1.2156,2.715-2.7151c0-1.4996-1.216-2.7152-2.715-2.7152-1.5,0-2.715,1.2156-2.715,2.7152c0,1.4995,1.215,2.7151,2.715,2.7151Z" fill="none" stroke="#0060e4" stroke-width="0.75" stroke-miterlimit="10"/><path d="M179.402,71.6823c1.5,0,2.716-1.2156,2.716-2.7152c0-1.4995-1.216-2.7151-2.716-2.7151-1.499,0-2.715,1.2156-2.715,2.7151c0,1.4996,1.216,2.7152,2.715,2.7152Z" fill="none" stroke="#0060e4" stroke-width="0.75" stroke-miterlimit="10"/><path d="M203.741,81.4245c1.5,0,2.715-1.2157,2.715-2.7152s-1.215-2.7152-2.715-2.7152-2.715,1.2157-2.715,2.7152s1.215,2.7152,2.715,2.7152Z" fill="none" stroke="#0060e4" stroke-width="0.75" stroke-miterlimit="10"/><path d="M250.149,87.0827c1.499,0,2.715-1.2157,2.715-2.7152s-1.216-2.7152-2.715-2.7152c-1.5,0-2.716,1.2157-2.716,2.7152s1.216,2.7152,2.716,2.7152Z" fill="none" stroke="#0060e4" stroke-width="0.75" stroke-miterlimit="10"/><path d="M296.024,137.922c1.5,0,2.715-1.216,2.715-2.716c0-1.499-1.215-2.715-2.715-2.715s-2.715,1.216-2.715,2.715c0,1.5,1.215,2.716,2.715,2.716Z" fill="none" stroke="#0060e4" stroke-width="0.75" stroke-miterlimit="10"/><path d="M285.467,129.874c1.5,0,2.716-1.216,2.716-2.715c0-1.5-1.216-2.716-2.716-2.716-1.499,0-2.715,1.216-2.715,2.716c0,1.499,1.216,2.715,2.715,2.715Z" fill="none" stroke="#0060e4" stroke-width="0.75" stroke-miterlimit="10"/><path d="M302.323,135.206c1.5,0,2.715-1.215,2.715-2.715s-1.215-2.715-2.715-2.715c-1.499,0-2.715,1.215-2.715,2.715s1.216,2.715,2.715,2.715Z" fill="none" stroke="#0060e4" stroke-width="0.75" stroke-miterlimit="10"/><path d="M285.467,112.584c1.5,0,2.716-1.216,2.716-2.716c0-1.499-1.216-2.715-2.716-2.715-1.499,0-2.715,1.216-2.715,2.715c0,1.5,1.216,2.716,2.715,2.716Z" fill="none" stroke="#0060e4" stroke-width="0.75" stroke-miterlimit="10"/><path d="M323.502,167.419c1.499,0,2.715-1.216,2.715-2.716c0-1.499-1.216-2.715-2.715-2.715-1.5,0-2.716,1.216-2.716,2.715c0,1.5,1.216,2.716,2.716,2.716Z" fill="none" stroke="#0060e4" stroke-width="0.75" stroke-miterlimit="10"/><path d="M334.362,167.397c1.5,0,2.715-1.215,2.715-2.715s-1.215-2.715-2.715-2.715c-1.499,0-2.715,1.215-2.715,2.715s1.216,2.715,2.715,2.715Z" fill="none" stroke="#0060e4" stroke-width="0.75" stroke-miterlimit="10"/><path d="M335.448,89.6457c1.5,0,2.715-1.2157,2.715-2.7152s-1.215-2.7152-2.715-2.7152c-1.499,0-2.715,1.2157-2.715,2.7152s1.216,2.7152,2.715,2.7152Z" fill="none" stroke="#0060e4" stroke-width="0.75" stroke-miterlimit="10"/><path d="M328.823,73.529c1.5,0,2.715-1.2157,2.715-2.7152s-1.215-2.7152-2.715-2.7152c-1.499,0-2.715,1.2157-2.715,2.7152s1.216,2.7152,2.715,2.7152Z" fill="none" stroke="#0060e4" stroke-width="0.75" stroke-miterlimit="10"/><path d="M322.09,188.934c1.499,0,2.715-1.216,2.715-2.715c0-1.5-1.216-2.716-2.715-2.716-1.5,0-2.715,1.216-2.715,2.716c0,1.499,1.215,2.715,2.715,2.715Z" fill="none" stroke="#0060e4" stroke-width="0.75" stroke-miterlimit="10"/><path d="M331.647,219.724c1.5,0,2.715-1.216,2.715-2.715c0-1.5-1.215-2.716-2.715-2.716-1.499,0-2.715,1.216-2.715,2.716c0,1.499,1.216,2.715,2.715,2.715Z" fill="none" stroke="#0060e4" stroke-width="0.75" stroke-miterlimit="10"/><path d="M335.296,212.621c1.5,0,2.715-1.216,2.715-2.715c0-1.5-1.215-2.716-2.715-2.716-1.499,0-2.715,1.216-2.715,2.716c0,1.499,1.216,2.715,2.715,2.715Z" fill="none" stroke="#0060e4" stroke-width="0.75" stroke-miterlimit="10"/><path d="M324.653,228.478c1.499,0,2.715-1.216,2.715-2.715c0-1.5-1.216-2.716-2.715-2.716-1.5,0-2.715,1.216-2.715,2.716c0,1.499,1.215,2.715,2.715,2.715Z" fill="none" stroke="#0060e4" stroke-width="0.75" stroke-miterlimit="10"/><path d="M312.196,228.478c1.499,0,2.715-1.216,2.715-2.715c0-1.5-1.216-2.716-2.715-2.716-1.5,0-2.716,1.216-2.716,2.716c0,1.499,1.216,2.715,2.716,2.715Z" fill="none" stroke="#0060e4" stroke-width="0.75" stroke-miterlimit="10"/><path d="M339.445,203.292c1.499,0,2.715-1.216,2.715-2.716c0-1.499-1.216-2.715-2.715-2.715-1.5,0-2.715,1.216-2.715,2.715c0,1.5,1.215,2.716,2.715,2.716Z" fill="none" stroke="#0060e4" stroke-width="0.75" stroke-miterlimit="10"/><path d="M347.482,188.934c1.499,0,2.715-1.216,2.715-2.715c0-1.5-1.216-2.716-2.715-2.716-1.5,0-2.715,1.216-2.715,2.716c0,1.499,1.215,2.715,2.715,2.715Z" fill="none" stroke="#0060e4" stroke-width="0.75" stroke-miterlimit="10"/><path d="M352.912,176.151c1.5,0,2.715-1.216,2.715-2.716c0-1.499-1.215-2.715-2.715-2.715-1.499,0-2.715,1.216-2.715,2.715c0,1.5,1.216,2.716,2.715,2.716Z" fill="none" stroke="#0060e4" stroke-width="0.75" stroke-miterlimit="10"/><path d="M352.173,148.402c1.5,0,2.716-1.216,2.716-2.715c0-1.5-1.216-2.715-2.716-2.715-1.499,0-2.715,1.215-2.715,2.715c0,1.499,1.216,2.715,2.715,2.715Z" fill="none" stroke="#0060e4" stroke-width="0.75" stroke-miterlimit="10"/><path d="M361.546,137.292c1.5,0,2.716-1.216,2.716-2.716c0-1.499-1.216-2.715-2.716-2.715-1.499,0-2.715,1.216-2.715,2.715c0,1.5,1.216,2.716,2.715,2.716Z" fill="none" stroke="#0060e4" stroke-width="0.75" stroke-miterlimit="10"/><path d="M351.142,100.083c1.499,0,2.715-1.216,2.715-2.7155s-1.216-2.7152-2.715-2.7152c-1.5,0-2.715,1.2157-2.715,2.7152s1.215,2.7155,2.715,2.7155Z" fill="none" stroke="#0060e4" stroke-width="0.75" stroke-miterlimit="10"/><path d="M348.427,89.0377c1.499,0,2.715-1.2156,2.715-2.7151s-1.216-2.7152-2.715-2.7152c-1.5,0-2.716,1.2156-2.716,2.7152s1.216,2.7151,2.716,2.7151Z" fill="none" stroke="#0060e4" stroke-width="0.75" stroke-miterlimit="10"/><path d="M297.968,30.0211c1.5,0,2.715-1.2156,2.715-2.7151c0-1.4996-1.215-2.7152-2.715-2.7152-1.499,0-2.715,1.2156-2.715,2.7152c0,1.4995,1.216,2.7151,2.715,2.7151Z" fill="none" stroke="#0060e4" stroke-width="0.75" stroke-miterlimit="10"/><path d="M309.057,39.5021c1.499,0,2.715-1.2156,2.715-2.7152s-1.216-2.7151-2.715-2.7151c-1.5,0-2.715,1.2156-2.715,2.7151s1.215,2.7152,2.715,2.7152Z" fill="none" stroke="#0060e4" stroke-width="0.75" stroke-miterlimit="10"/><path d="M278.756,20.5719c1.499,0,2.715-1.2156,2.715-2.7151s-1.216-2.7152-2.715-2.7152c-1.5,0-2.715,1.2156-2.715,2.7152s1.215,2.7151,2.715,2.7151Z" fill="none" stroke="#0060e4" stroke-width="0.75" stroke-miterlimit="10"/><path d="M263.801,22.5163c1.499,0,2.715-1.2157,2.715-2.7152s-1.216-2.7152-2.715-2.7152c-1.5,0-2.716,1.2157-2.716,2.7152s1.216,2.7152,2.716,2.7152Z" fill="none" stroke="#0060e4" stroke-width="0.75" stroke-miterlimit="10"/><path d="M220.934,6.0187c1.499,0,2.715-1.21562,2.715-2.71516s-1.216-2.715161-2.715-2.715161c-1.5,0-2.715,1.215621-2.715,2.715161s1.215,2.71516,2.715,2.71516Z" fill="none" stroke="#0060e4" stroke-width="0.75" stroke-miterlimit="10"/><path d="M328.932,157.84c1.499,0,2.715-1.216,2.715-2.715c0-1.5-1.216-2.715-2.715-2.715-1.5,0-2.715,1.215-2.715,2.715c0,1.499,1.215,2.715,2.715,2.715Z" fill="none" stroke="#0060e4" stroke-width="0.75" stroke-miterlimit="10"/><path d="M334.362,148.402c1.5,0,2.715-1.216,2.715-2.715c0-1.5-1.215-2.715-2.715-2.715-1.499,0-2.715,1.215-2.715,2.715c0,1.499,1.216,2.715,2.715,2.715Z" fill="none" stroke="#0060e4" stroke-width="0.75" stroke-miterlimit="10"/><path d="M202.601,46.0402c1.499,0,2.715-1.2156,2.715-2.7152s-1.216-2.7151-2.715-2.7151c-1.5,0-2.716,1.2156-2.716,2.7151s1.216,2.7152,2.716,2.7152Z" fill="none" stroke="#0060e4" stroke-width="0.75" stroke-miterlimit="10"/><path d="M179.978,18.7257c1.5,0,2.715-1.2156,2.715-2.7151s-1.215-2.7152-2.715-2.7152c-1.499,0-2.715,1.2156-2.715,2.7152s1.216,2.7151,2.715,2.7151Z" fill="none" stroke="#0060e4" stroke-width="0.75" stroke-miterlimit="10"/><path d="M200.233,53.8708c1.5,0,2.715-1.2157,2.715-2.7152c0-1.4996-1.215-2.7152-2.715-2.7152s-2.715,1.2156-2.715,2.7152c0,1.4995,1.215,2.7152,2.715,2.7152Z" fill="none" stroke="#0060e4" stroke-width="0.75" stroke-miterlimit="10"/><path d="M189.285,56.1408c1.5,0,2.716-1.2156,2.716-2.7152s-1.216-2.7152-2.716-2.7152c-1.499,0-2.715,1.2157-2.715,2.7152s1.216,2.7152,2.715,2.7152Z" fill="none" stroke="#0060e4" stroke-width="0.75" stroke-miterlimit="10"/><path d="M170.225,32.0407c1.5,0,2.715-1.2156,2.715-2.7152s-1.215-2.7151-2.715-2.7151c-1.499,0-2.715,1.2156-2.715,2.7151s1.216,2.7152,2.715,2.7152Z" fill="none" stroke="#0060e4" stroke-width="0.75" stroke-miterlimit="10"/><path d="M167.51,22.5163c1.5,0,2.715-1.2157,2.715-2.7152s-1.215-2.7152-2.715-2.7152c-1.499,0-2.715,1.2157-2.715,2.7152s1.216,2.7152,2.715,2.7152Z" fill="none" stroke="#0060e4" stroke-width="0.75" stroke-miterlimit="10"/><path d="M191.251,13.2956c1.5,0,2.715-1.2157,2.715-2.7152s-1.215-2.71517-2.715-2.71517c-1.499,0-2.715,1.21562-2.715,2.71517s1.216,2.7152,2.715,2.7152Z" fill="none" stroke="#0060e4" stroke-width="0.75" stroke-miterlimit="10"/><path d="M151.327,37.4713c1.5,0,2.716-1.2156,2.716-2.7151c0-1.4996-1.216-2.7152-2.716-2.7152-1.499,0-2.715,1.2156-2.715,2.7152c0,1.4995,1.216,2.7151,2.715,2.7151Z" fill="none" stroke="#0060e4" stroke-width="0.75" stroke-miterlimit="10"/><path d="M214.298,82.0431c1.499,0,2.715-1.2156,2.715-2.7151c0-1.4996-1.216-2.7152-2.715-2.7152-1.5,0-2.715,1.2156-2.715,2.7152c0,1.4995,1.215,2.7151,2.715,2.7151Z" fill="none" stroke="#0060e4" stroke-width="0.75" stroke-miterlimit="10"/><path d="M205.316,94.2721c1.499,0,2.715-1.2156,2.715-2.7151c0-1.4996-1.216-2.7152-2.715-2.7152-1.5,0-2.715,1.2156-2.715,2.7152c0,1.4995,1.215,2.7151,2.715,2.7151Z" fill="none" stroke="#0060e4" stroke-width="0.75" stroke-miterlimit="10"/><path d="M121.819,65.6764c1.5,0,2.715-1.2156,2.715-2.7151s-1.215-2.7152-2.715-2.7152c-1.499,0-2.715,1.2156-2.715,2.7152c0,1.4995,1.216,2.7151,2.715,2.7151Z" fill="none" stroke="#0060e4" stroke-width="0.75" stroke-miterlimit="10"/><path d="M116.975,75.2446v5.8756l13.153,5.2023" fill="none" stroke="#0060e4" stroke-miterlimit="10"/><path d="M135.558,97.6719l-3.595,9.4491l2.02,13.293" fill="none" stroke="#0060e4" stroke-miterlimit="10"/><path d="M131.692,133.023l-8.135,6.201l2.9,18.648" fill="none" stroke="#0060e4" stroke-miterlimit="10"/><path d="M216.133,125.127l8.156-6.614-12.511-9.253-5.81-14.988" fill="none" stroke="#0060e4" stroke-miterlimit="10"/><path d="M177.643,169.461l5.387-5.159v-10.405l2.443-14.368l17.128-7.95" fill="none" stroke="#0060e4" stroke-miterlimit="10"/><path d="M128.368,173.468l9.71,17.736l7.341,2.758l14.673-14.064" fill="none" stroke="#0060e4" stroke-miterlimit="10"/><path d="M214.298,82.0435l2.063,22.0145l5.506,3.519l26.294,2.291" fill="none" stroke="#0060e4" stroke-miterlimit="10"/><path d="M259.478,104.058l-4.887-9.7856-11.317-2.7477-2.444-5.2022l4.888-8.2541" fill="none" stroke="#0060e4" stroke-miterlimit="10"/><path d="M252.343,86.3223l17.225,13.4563l9.177,17.4314l1.292,34.233l7.212-3.041l8.004-10.709" fill="none" stroke="#0060e4" stroke-miterlimit="10"/><path d="M305.038,131.579l7.038-3.671l6.723,5.202v12.837l8.569,7.342" fill="none" stroke="#0060e4" stroke-miterlimit="10"/><path d="M320.949,165.518l-10.1,3.975l5.354,8.265-5.354,10.09l8.873,10.089l10.361,16.356" fill="none" stroke="#0060e4" stroke-miterlimit="10"/><path d="M218.218,3.96582L193.586,9.41787" fill="none" stroke="#0060e4" stroke-miterlimit="10"/><path d="M346.798,84.4546L333.96,58.0306L310.849,38.438" fill="none" stroke="#0060e4" stroke-miterlimit="10"/><path d="M353.662,170.721l7.884-33.429" fill="none" stroke="#0060e4" stroke-miterlimit="10"/><path d="M263.562,264.089l41.476-19.169l17.725-17.409" fill="none" stroke="#0060e4" stroke-miterlimit="10"/><path d="M164.48,254.304l36.85,9.785l35.786,3.541" fill="none" stroke="#0060e4" stroke-miterlimit="10"/><path d="M114.488,210.752l34.494,33.701" fill="none" stroke="#0060e4" stroke-miterlimit="10"/><path d="M93.5381,108.065v45.224l10.1869,40.673" fill="none" stroke="#0060e4" stroke-miterlimit="10"/><path d="M165.099,21.0278L144.507,32.9094l-10.1,5.3-17.432,19.5709L98.8379,86.3221" fill="none" stroke="#0060e4" stroke-miterlimit="10"/><path d="M123.557,61.5494l13.304-15.9l12.533-8.8623" fill="none" stroke="#0060e4" stroke-miterlimit="10"/><path d="M182.118,17.2593l7.95,3.3125l10.089-6.4621h11.013l18.485-8.09115l29.823,5.37605l16.563,5.4303" fill="none" stroke="#0060e4" stroke-miterlimit="10"/><path d="M172.94,30.0532L188.536,33.42l-3.366,5.5064l3.366,12.2291" fill="none" stroke="#0060e4" stroke-miterlimit="10"/><path d="M202.601,52.6872l14.064,8.8623h4.594l-4.898-14.3687-11.317-2.7477" fill="none" stroke="#0060e4" stroke-miterlimit="10"/><path d="M288.226,248.092l16.812-22.33h4.442" fill="none" stroke="#0060e4" stroke-miterlimit="10"/><path d="M323.393,183.982l9.405-16.704" fill="none" stroke="#0060e4" stroke-miterlimit="10"/><path d="M351.522,148.402l-9.481,26.902-10.09,7.95-4.583,8.873l6.69,15.064" fill="none" stroke="#0060e4" stroke-miterlimit="10"/><path d="M346.016,188.934l-5.138,9.34" fill="none" stroke="#0060e4" stroke-miterlimit="10"/><path d="M337.153,144.731l10.09-2.759l7.646-18.876-3.367-23.013" fill="none" stroke="#0060e4" stroke-miterlimit="10"/><path d="M266.516,20.5718l11.925,4.8981l16.812,1.8355" fill="none" stroke="#0060e4" stroke-miterlimit="10"/><path d="M139.196,70.4224h22.775v16.6602" fill="none" stroke="#0060e4" stroke-miterlimit="10"/><path d="M150.676,109.869l8.46,11.859h22.591" fill="none" stroke="#0060e4" stroke-miterlimit="10"/><path d="M136.481,150.52l6.962,7.635h21.037v-17.551" fill="none" stroke="#0060e4" stroke-miterlimit="10"/><path d="M190.122,75.2446v27.3904" fill="none" stroke="#0060e4" stroke-miterlimit="10"/><path d="M223.649,32.041h37.436" fill="none" stroke="#0060e4" stroke-miterlimit="10"/><path d="M296.024,43.3252L322.47,62.9613v24.1215" fill="none" stroke="#0060e4" stroke-miterlimit="10"/><path d="M266.516,70.4224l16.497,16.5082h13.011" fill="none" stroke="#0060e4" stroke-miterlimit="10"/><path d="M340.878,102.635l3.889,17.747-5.322,11.479" fill="none" stroke="#0060e4" stroke-miterlimit="10"/><path d="M285.468,112.583v11.86" fill="none" stroke="#0060e4" stroke-miterlimit="10"/><path d="M300.683,114.756h19.788v7.646" fill="none" stroke="#0060e4" stroke-miterlimit="10"/><path d="M238.691,48.4404h33.016l13.761,13.1088" fill="none" stroke="#0060e4" stroke-miterlimit="10"/><path d="M202.601,62.9612l7.233,7.2331h21.395l7.342-7.3418" fill="none" stroke="#0060e4" stroke-miterlimit="10"/><path d="M223.649,86.3223v10.8823l6.516,2.8784l10.665-.1632" fill="none" stroke="#0060e4" stroke-miterlimit="10"/><path d="M293.309,53.6753l15.748,12.001v10.9367" fill="none" stroke="#0060e4" stroke-miterlimit="10"/><path d="M281.471,97.2046h16.497l8.374,6.8534h21.026" fill="none" stroke="#0060e4" stroke-miterlimit="10"/><path d="M330.083,73.2788l4.279,11.1756" fill="none" stroke="#0060e4" stroke-miterlimit="10"/><path d="M332.223,114.756v7.646" fill="none" stroke="#0060e4" stroke-miterlimit="10"/><path d="M242.665,17.857l-13.869-.7711-16.432,9.5248h-11.393" fill="none" stroke="#0060e4" stroke-miterlimit="10"/><path d="M170.225,42.0435h-12.576l-7.169,3.9967v10.1004h25.382" fill="none" stroke="#0060e4" stroke-miterlimit="10"/><path d="M170.225,65.144v14.1841l7.038,2.7151v13.9125" fill="none" stroke="#0060e4" stroke-miterlimit="10"/><path d="M165.099,109.869h12.164l5.43,4.887h19.908" fill="none" stroke="#0060e4" stroke-miterlimit="10"/><path d="M155.715,136.271v13.108h-7.102l-5.257-6.788" fill="none" stroke="#0060e4" stroke-miterlimit="10"/><path d="M139.196,170.72l3.78,7.071l3.703.575l10.361-9.948" fill="none" stroke="#0060e4" stroke-miterlimit="10"/><path d="M173.744,144.731v13.424" fill="none" stroke="#0060e4" stroke-miterlimit="10"/><path d="M181.292,66.252l4.116-4.7027h5.843l11.35,14.4447" fill="none" stroke="#0060e4" stroke-miterlimit="10"/><path d="M141.52,115.299l3.411,9.394" fill="none" stroke="#0060e4" stroke-miterlimit="10"/><path d="M172.256,128.56h16.28l5.789-4.117" fill="none" stroke="#0060e4" stroke-miterlimit="10"/><path d="M159.582,99.833h4.387" fill="none" stroke="#0060e4" stroke-miterlimit="10"/><path d="M146.679,82.0435v10.1981" fill="none" stroke="#0060e4" stroke-miterlimit="10"/><path d="M127.63,73.2785v-6.7553l11.957-10.9475" fill="none" stroke="#0060e4" stroke-miterlimit="10"/><path d="M151.328,62.8525h4.387" fill="none" stroke="#0060e4" stroke-miterlimit="10"/><path d="M231.794,56.1406h13.587l5.495.9775" fill="none" stroke="#0060e4" stroke-miterlimit="10"/><path d="M272.359,60.7563l9.112,10.763" fill="none" stroke="#0060e4" stroke-miterlimit="10"/><path d="M259.478,78.6763l9.177,6.6901" fill="none" stroke="#0060e4" stroke-miterlimit="10"/><path d="M232.24,85.3667l3.736-9.4487" fill="none" stroke="#0060e4" stroke-miterlimit="10"/><path d="M198.984,34.7559l23.209,6.0059l27.402-.5213" fill="none" stroke="#0060e4" stroke-miterlimit="10"/><path d="M310.219,95.3477l4.822,2.02" fill="none" stroke="#0060e4" stroke-miterlimit="10"/><path d="M292.538,73.1372l-7.07.7603" fill="none" stroke="#0060e4" stroke-miterlimit="10"/><path d="M275.389,40.7616l2.997-4.5507" fill="none" stroke="#0060e4" stroke-width="0.75" stroke-miterlimit="10"/><path id="e8fjLN6o1Da226" d="M93.5378,153.289c-2.8129,1.477-41.314,22.036-37.7191,37.1c3.432,14.38,44.2133,15.346,56.8443,15.65c120.391,2.9,227.281-84.919,251.359-147.5309c2.781-7.2223,8.569-22.8616,1.401-32.1149-12.718-16.3887-56.204.0434-59.451,1.3141" opacity="0.2" fill="none" stroke="#0060e4" stroke-width="4" stroke-miterlimit="10" stroke-dashoffset="600" stroke-dasharray="600"/><path id="e8fjLN6o1Da227" d="M134.407,38.2101c-43.4104-15.194-57.5075-11.8924-62.0799-5.6149C57.6544,52.7851,121.721,131.047,192.196,181.821c67.152,48.373,155.677,82.997,168.796,64.827c6.658-9.221-7.168-30.584-18.843-46.082" opacity="0.2" fill="none" stroke="#0060e4" stroke-width="4" stroke-miterlimit="10" stroke-dashoffset="600" stroke-dasharray="600"/></g></g><g id="e8fjLN6o1Da228_to" transform="translate(169.518,465.613495)"><g transform="translate(-179.396999,-420.613495)"><path d="M127.108,351.138c1.5,0,2.715-1.216,2.715-2.715c0-1.5-1.215-2.715-2.715-2.715s-2.715,1.215-2.715,2.715c0,1.499,1.215,2.715,2.715,2.715Z" fill="none" stroke="#0060e4" stroke-width="0.75" stroke-miterlimit="10"/><path d="M173.82,340.56c1.499,0,2.715-1.216,2.715-2.715c0-1.5-1.216-2.716-2.715-2.716-1.5,0-2.716,1.216-2.716,2.716c0,1.499,1.216,2.715,2.716,2.715Z" fill="none" stroke="#0060e4" stroke-width="0.75" stroke-miterlimit="10"/><path d="M189.763,381.319c1.5,0,2.715-1.215,2.715-2.715c0-1.499-1.215-2.715-2.715-2.715s-2.715,1.216-2.715,2.715c0,1.5,1.215,2.715,2.715,2.715Z" fill="none" stroke="#0060e4" stroke-width="0.75" stroke-miterlimit="10"/><path d="M172.364,368.917c1.5,0,2.715-1.216,2.715-2.716c0-1.499-1.215-2.715-2.715-2.715-1.499,0-2.715,1.216-2.715,2.715c0,1.5,1.216,2.716,2.715,2.716Z" fill="none" stroke="#0060e4" stroke-width="0.75" stroke-miterlimit="10"/><path d="M159.071,351.138c1.499,0,2.715-1.216,2.715-2.715c0-1.5-1.216-2.715-2.715-2.715-1.5,0-2.715,1.215-2.715,2.715c0,1.499,1.215,2.715,2.715,2.715Z" fill="none" stroke="#0060e4" stroke-width="0.75" stroke-miterlimit="10"/><path d="M183.334,365.018c1.499,0,2.715-1.216,2.715-2.715c0-1.5-1.216-2.716-2.715-2.716-1.5,0-2.716,1.216-2.716,2.716c0,1.499,1.216,2.715,2.716,2.715Z" fill="none" stroke="#0060e4" stroke-width="0.75" stroke-miterlimit="10"/><path d="M143.431,371.632c1.5,0,2.716-1.216,2.716-2.715c0-1.5-1.216-2.715-2.716-2.715-1.499,0-2.715,1.215-2.715,2.715c0,1.499,1.216,2.715,2.715,2.715Z" fill="none" stroke="#0060e4" stroke-width="0.75" stroke-miterlimit="10"/><path d="M147.385,390.877c1.499,0,2.715-1.216,2.715-2.715c0-1.5-1.216-2.715-2.715-2.715-1.5,0-2.715,1.215-2.715,2.715c0,1.499,1.215,2.715,2.715,2.715Z" fill="none" stroke="#0060e4" stroke-width="0.75" stroke-miterlimit="10"/><path d="M175.992,385.447c1.499,0,2.715-1.216,2.715-2.715c0-1.5-1.216-2.715-2.715-2.715-1.5,0-2.715,1.215-2.715,2.715c0,1.499,1.215,2.715,2.715,2.715Z" fill="none" stroke="#0060e4" stroke-width="0.75" stroke-miterlimit="10"/><path d="M179.185,396.307c1.499,0,2.715-1.215,2.715-2.715c0-1.499-1.216-2.715-2.715-2.715-1.5,0-2.716,1.216-2.716,2.715c0,1.5,1.216,2.715,2.716,2.715Z" fill="none" stroke="#0060e4" stroke-width="0.75" stroke-miterlimit="10"/><path d="M193.977,452.381c1.5,0,2.715-1.216,2.715-2.716c0-1.499-1.215-2.715-2.715-2.715-1.499,0-2.715,1.216-2.715,2.715c0,1.5,1.216,2.716,2.715,2.716Z" fill="none" stroke="#0060e4" stroke-width="0.75" stroke-miterlimit="10"/><path d="M217.013,383.535c1.499,0,2.715-1.215,2.715-2.715c0-1.499-1.216-2.715-2.715-2.715-1.5,0-2.716,1.216-2.716,2.715c0,1.5,1.216,2.715,2.716,2.715Z" fill="none" stroke="#0060e4" stroke-width="0.75" stroke-miterlimit="10"/><path d="M207.216,393.592c1.5,0,2.715-1.215,2.715-2.715c0-1.499-1.215-2.715-2.715-2.715-1.499,0-2.715,1.216-2.715,2.715c0,1.5,1.216,2.715,2.715,2.715Z" fill="none" stroke="#0060e4" stroke-width="0.75" stroke-miterlimit="10"/><path d="M219.728,397.904c1.499,0,2.715-1.216,2.715-2.715c0-1.5-1.216-2.715-2.715-2.715-1.5,0-2.716,1.215-2.716,2.715c0,1.499,1.216,2.715,2.716,2.715Z" fill="none" stroke="#0060e4" stroke-width="0.75" stroke-miterlimit="10"/><path d="M225.538,377.062c1.499,0,2.715-1.215,2.715-2.715s-1.216-2.715-2.715-2.715c-1.5,0-2.715,1.215-2.715,2.715s1.215,2.715,2.715,2.715Z" fill="none" stroke="#0060e4" stroke-width="0.75" stroke-miterlimit="10"/><path d="M196.193,362.574c1.499,0,2.715-1.215,2.715-2.715c0-1.499-1.216-2.715-2.715-2.715-1.5,0-2.715,1.216-2.715,2.715c0,1.5,1.215,2.715,2.715,2.715Z" fill="none" stroke="#0060e4" stroke-width="0.75" stroke-miterlimit="10"/><path d="M203.513,381.319c1.499,0,2.715-1.215,2.715-2.715c0-1.499-1.216-2.715-2.715-2.715-1.5,0-2.715,1.216-2.715,2.715c0,1.5,1.215,2.715,2.715,2.715Z" fill="none" stroke="#0060e4" stroke-width="0.75" stroke-miterlimit="10"/><path d="M193.478,395.634c1.499,0,2.715-1.215,2.715-2.715c0-1.499-1.216-2.715-2.715-2.715-1.5,0-2.716,1.216-2.716,2.715c0,1.5,1.216,2.715,2.716,2.715Z" fill="none" stroke="#0060e4" stroke-width="0.75" stroke-miterlimit="10"/><path d="M206.423,408.569c1.5,0,2.716-1.216,2.716-2.715c0-1.5-1.216-2.715-2.716-2.715-1.499,0-2.715,1.215-2.715,2.715c0,1.499,1.216,2.715,2.715,2.715Z" fill="none" stroke="#0060e4" stroke-width="0.75" stroke-miterlimit="10"/><path d="M219.728,430.974c1.499,0,2.715-1.215,2.715-2.715c0-1.499-1.216-2.715-2.715-2.715-1.5,0-2.716,1.216-2.716,2.715c0,1.5,1.216,2.715,2.716,2.715Z" fill="none" stroke="#0060e4" stroke-width="0.75" stroke-miterlimit="10"/><path d="M181.704,457.506c1.5,0,2.716-1.215,2.716-2.715c0-1.499-1.216-2.715-2.716-2.715-1.499,0-2.715,1.216-2.715,2.715c0,1.5,1.216,2.715,2.715,2.715Z" fill="none" stroke="#0060e4" stroke-width="0.75" stroke-miterlimit="10"/><path d="M184.463,473.537c1.5,0,2.715-1.216,2.715-2.715c0-1.5-1.215-2.716-2.715-2.716-1.499,0-2.715,1.216-2.715,2.716c0,1.499,1.216,2.715,2.715,2.715Z" fill="none" stroke="#0060e4" stroke-width="0.75" stroke-miterlimit="10"/><path d="M209.019,473.537c1.499,0,2.715-1.216,2.715-2.715c0-1.5-1.216-2.716-2.715-2.716-1.5,0-2.715,1.216-2.715,2.716c0,1.499,1.215,2.715,2.715,2.715Z" fill="none" stroke="#0060e4" stroke-width="0.75" stroke-miterlimit="10"/><path d="M202.6,463.48c1.5,0,2.716-1.215,2.716-2.715s-1.216-2.715-2.716-2.715c-1.499,0-2.715,1.215-2.715,2.715s1.216,2.715,2.715,2.715Z" fill="none" stroke="#0060e4" stroke-width="0.75" stroke-miterlimit="10"/><path d="M193.478,482.899c1.499,0,2.715-1.216,2.715-2.715c0-1.5-1.216-2.715-2.715-2.715-1.5,0-2.716,1.215-2.716,2.715c0,1.499,1.216,2.715,2.716,2.715Z" fill="none" stroke="#0060e4" stroke-width="0.75" stroke-miterlimit="10"/><path d="M191.262,492.511c1.5,0,2.715-1.215,2.715-2.715c0-1.499-1.215-2.715-2.715-2.715s-2.715,1.216-2.715,2.715c0,1.5,1.215,2.715,2.715,2.715Z" fill="none" stroke="#0060e4" stroke-width="0.75" stroke-miterlimit="10"/><path d="M213.081,526.613c1.499,0,2.715-1.216,2.715-2.715c0-1.5-1.216-2.715-2.715-2.715-1.5,0-2.715,1.215-2.715,2.715c0,1.499,1.215,2.715,2.715,2.715Z" transform="translate(-21.819001-16.933)" fill="none" stroke="#0060e4" stroke-width="0.75" stroke-miterlimit="10"/><path d="M202.6,496.312c1.5,0,2.716-1.215,2.716-2.715s-1.216-2.715-2.716-2.715c-1.499,0-2.715,1.215-2.715,2.715s1.216,2.715,2.715,2.715Z" fill="none" stroke="#0060e4" stroke-width="0.75" stroke-miterlimit="10"/><path d="M222.443,490.882c1.499,0,2.715-1.215,2.715-2.715c0-1.499-1.216-2.715-2.715-2.715-1.5,0-2.715,1.216-2.715,2.715c0,1.5,1.215,2.715,2.715,2.715Z" fill="none" stroke="#0060e4" stroke-width="0.75" stroke-miterlimit="10"/><path d="M205.316,423.068c1.499,0,2.715-1.216,2.715-2.715c0-1.5-1.216-2.715-2.715-2.715-1.5,0-2.716,1.215-2.716,2.715c0,1.499,1.216,2.715,2.716,2.715Z" fill="none" stroke="#0060e4" stroke-width="0.75" stroke-miterlimit="10"/><path d="M216.035,450.143c1.5,0,2.715-1.215,2.715-2.715c0-1.499-1.215-2.715-2.715-2.715s-2.715,1.216-2.715,2.715c0,1.5,1.215,2.715,2.715,2.715Z" fill="none" stroke="#0060e4" stroke-width="0.75" stroke-miterlimit="10"/><path d="M181.9,425.783c1.5,0,2.715-1.216,2.715-2.715c0-1.5-1.215-2.715-2.715-2.715s-2.715,1.215-2.715,2.715c0,1.499,1.215,2.715,2.715,2.715Z" fill="none" stroke="#0060e4" stroke-width="0.75" stroke-miterlimit="10"/><path d="M136.014,379.777c1.499,0,2.715-1.215,2.715-2.715c0-1.499-1.216-2.715-2.715-2.715-1.5,0-2.715,1.216-2.715,2.715c0,1.5,1.215,2.715,2.715,2.715Z" fill="none" stroke="#0060e4" stroke-width="0.75" stroke-miterlimit="10"/><path d="M156.356,403.334c1.499,0,2.715-1.216,2.715-2.716c0-1.499-1.216-2.715-2.715-2.715-1.5,0-2.716,1.216-2.716,2.715c0,1.5,1.216,2.716,2.716,2.716Z" fill="none" stroke="#0060e4" stroke-width="0.75" stroke-miterlimit="10"/><path d="M160.743,396.307c1.5,0,2.716-1.215,2.716-2.715c0-1.499-1.216-2.715-2.716-2.715-1.499,0-2.715,1.216-2.715,2.715c0,1.5,1.216,2.715,2.715,2.715Z" fill="none" stroke="#0060e4" stroke-width="0.75" stroke-miterlimit="10"/><path d="M171.105,463.219c1.499,0,2.715-1.215,2.715-2.715c0-1.499-1.216-2.715-2.715-2.715-1.5,0-2.716,1.216-2.716,2.715c0,1.5,1.216,2.715,2.716,2.715Z" fill="none" stroke="#0060e4" stroke-width="0.75" stroke-miterlimit="10"/><path d="M172.364,448.286c1.5,0,2.715-1.216,2.715-2.715c0-1.5-1.215-2.716-2.715-2.716-1.499,0-2.715,1.216-2.715,2.716c0,1.499,1.216,2.715,2.715,2.715Z" fill="none" stroke="#0060e4" stroke-width="0.75" stroke-miterlimit="10"/><path d="M234.4,388.292c1.5,0,2.716-1.215,2.716-2.715s-1.216-2.715-2.716-2.715c-1.499,0-2.715,1.215-2.715,2.715s1.216,2.715,2.715,2.715Z" fill="none" stroke="#0060e4" stroke-width="0.75" stroke-miterlimit="10"/><path d="M228.286,453.966c1.499,0,2.715-1.215,2.715-2.715c0-1.499-1.216-2.715-2.715-2.715-1.5,0-2.715,1.216-2.715,2.715c0,1.5,1.215,2.715,2.715,2.715Z" fill="none" stroke="#0060e4" stroke-width="0.75" stroke-miterlimit="10"/><path d="M229.795,468.65c1.5,0,2.716-1.216,2.716-2.715c0-1.5-1.216-2.715-2.716-2.715-1.499,0-2.715,1.215-2.715,2.715c0,1.499,1.216,2.715,2.715,2.715Z" fill="none" stroke="#0060e4" stroke-width="0.75" stroke-miterlimit="10"/><path d="M233.336,571.717c1.5,0,2.715-1.215,2.715-2.715c0-1.499-1.215-2.715-2.715-2.715s-2.715,1.216-2.715,2.715c0,1.5,1.215,2.715,2.715,2.715Z" transform="translate(0-59.321001)" fill="none" stroke="#0060e4" stroke-width="0.75" stroke-miterlimit="10"/><path d="M171.105,572c1.499,0,2.715-1.216,2.715-2.716c0-1.499-1.216-2.715-2.715-2.715-1.5,0-2.716,1.216-2.716,2.715c0,1.5,1.216,2.716,2.716,2.716Z" transform="translate(8.83-62.319)" fill="none" stroke="#0060e4" stroke-width="0.75" stroke-miterlimit="10"/><path d="M209.975,367.277c1.499,0,2.715-1.216,2.715-2.716c0-1.499-1.216-2.715-2.715-2.715-1.5,0-2.715,1.216-2.715,2.715c0,1.5,1.215,2.716,2.715,2.716Z" fill="none" stroke="#0060e4" stroke-width="0.75" stroke-miterlimit="10"/><path d="M234.4,377.062c1.5,0,2.716-1.215,2.716-2.715s-1.216-2.715-2.716-2.715c-1.499,0-2.715,1.215-2.715,2.715s1.216,2.715,2.715,2.715Z" fill="none" stroke="#0060e4" stroke-width="0.75" stroke-miterlimit="10"/><path d="M214.102,300.332c1.499,0,2.715-1.216,2.715-2.715c0-1.5-1.216-2.716-2.715-2.716-1.5,0-2.715,1.216-2.715,2.716c0,1.499,1.215,2.715,2.715,2.715Z" fill="none" stroke="#0060e4" stroke-width="0.75" stroke-miterlimit="10"/><path d="M211.582,312.007c1.5,0,2.715-1.216,2.715-2.715c0-1.5-1.215-2.715-2.715-2.715-1.499,0-2.715,1.215-2.715,2.715c0,1.499,1.216,2.715,2.715,2.715Z" fill="none" stroke="#0060e4" stroke-width="0.75" stroke-miterlimit="10"/><path d="M218.218,317.861c1.499,0,2.715-1.216,2.715-2.716c0-1.499-1.216-2.715-2.715-2.715-1.5,0-2.715,1.216-2.715,2.715c0,1.5,1.215,2.716,2.715,2.716Z" fill="none" stroke="#0060e4" stroke-width="0.75" stroke-miterlimit="10"/><path d="M226.754,328.211c1.5,0,2.716-1.216,2.716-2.715c0-1.5-1.216-2.715-2.716-2.715-1.499,0-2.715,1.215-2.715,2.715c0,1.499,1.216,2.715,2.715,2.715Z" fill="none" stroke="#0060e4" stroke-width="0.75" stroke-miterlimit="10"/><path d="M220.531,289.525c1.5,0,2.715-1.216,2.715-2.715c0-1.5-1.215-2.715-2.715-2.715-1.499,0-2.715,1.215-2.715,2.715c0,1.499,1.216,2.715,2.715,2.715Z" fill="none" stroke="#0060e4" stroke-width="0.75" stroke-miterlimit="10"/><path d="M211.582,348.423c1.5,0,2.715-1.216,2.715-2.716c0-1.499-1.215-2.715-2.715-2.715-1.499,0-2.715,1.216-2.715,2.715c0,1.5,1.216,2.716,2.715,2.716Z" fill="none" stroke="#0060e4" stroke-width="0.75" stroke-miterlimit="10"/><path d="M186.244,338.605c1.5,0,2.715-1.216,2.715-2.716c0-1.499-1.215-2.715-2.715-2.715-1.499,0-2.715,1.216-2.715,2.715c0,1.5,1.216,2.716,2.715,2.716Z" fill="none" stroke="#0060e4" stroke-width="0.75" stroke-miterlimit="10"/><path d="M124.393,359.859c1.499,0,2.715-1.216,2.715-2.715c0-1.5-1.216-2.715-2.715-2.715-1.5,0-2.715,1.215-2.715,2.715c0,1.499,1.215,2.715,2.715,2.715Z" fill="none" stroke="#0060e4" stroke-width="0.75" stroke-miterlimit="10"/><path d="M230.903,274.657c1.5,0,2.716-1.216,2.716-2.715c0-1.5-1.216-2.715-2.716-2.715-1.499,0-2.715,1.215-2.715,2.715c0,1.499,1.216,2.715,2.715,2.715Z" fill="none" stroke="#0060e4" stroke-width="0.75" stroke-miterlimit="10"/><path d="M219.728,274.657c1.499,0,2.715-1.216,2.715-2.715c0-1.5-1.216-2.715-2.715-2.715-1.5,0-2.716,1.215-2.716,2.715c0,1.499,1.216,2.715,2.716,2.715Z" fill="none" stroke="#0060e4" stroke-width="0.75" stroke-miterlimit="10"/><path d="M129.823,347.63l5.811-1.835l14.064-7.95h21.407" fill="none" stroke="#0060e4" stroke-miterlimit="10"/><path d="M187.624,337.845l3.051,4.887l9.482-2.444l5.506,7.342l3.356,14.673" fill="none" stroke="#0060e4" stroke-miterlimit="10"/><path d="M211.582,311.475v31.517" fill="none" stroke="#0060e4" stroke-miterlimit="10"/><path d="M218.218,273.93l-3.921,6.972-.195,14" fill="none" stroke="#0060e4" stroke-miterlimit="10"/><path d="M232.261,273.93l2.14,4.279v40.369v53.054" fill="none" stroke="#0060e4" stroke-miterlimit="10"/><path d="M230.143,468.649l3.193,26.066v12.535001" fill="none" stroke="#0060e4" stroke-miterlimit="10"/><path d="M234.4,388.292l-6.114,60.244" fill="none" stroke="#0060e4" stroke-miterlimit="10"/><path d="M145.723,368.113l16.519-9.177-6.125-3.356-17.421,3.356-11.588-.456" fill="none" stroke="#0060e4" stroke-miterlimit="10"/><path d="M153.641,401.998l-3.172,2.509-6.885-3.367-2.14-8.254-4.279-1.531-2.444-4.584v-7.331" fill="none" stroke="#0060e4" stroke-miterlimit="10"/><path d="M162.242,395.634l5.811,7.342l4.311,17.822v22.058" fill="none" stroke="#0060e4" stroke-miterlimit="10"/><path d="M173.244,463.22l7.95,25.066-.938,15.964" fill="none" stroke="#0060e4" stroke-miterlimit="10"/><path d="M149.492,386.478l8.536-10.784l6.658-.532l9.134,5.832" fill="none" stroke="#0060e4" stroke-miterlimit="10"/><path d="M223.247,286.81h3.508v35.971" fill="none" stroke="#0060e4" stroke-miterlimit="10"/><path d="M218.218,317.86v18.029l7.32,4.67v31.072" fill="none" stroke="#0060e4" stroke-miterlimit="10"/><path d="M161.395,348.129h21.939v11.437" fill="none" stroke="#0060e4" stroke-miterlimit="10"/><path d="M173.82,368.113l13.803,8.949" fill="none" stroke="#0060e4" stroke-miterlimit="10"/><path d="M219.728,397.903v27.641" fill="none" stroke="#0060e4" stroke-miterlimit="10"/><path d="M178.707,396.308l-.456,17.92h15.726v32.723" fill="none" stroke="#0060e4" stroke-miterlimit="10"/><path d="M181.9,425.783v26.294" fill="none" stroke="#0060e4" stroke-miterlimit="10"/><path d="M187.178,470.821h19.126" fill="none" stroke="#0060e4" stroke-miterlimit="10"/><path d="M205.359,460.765h12.859v19.418h-22.036" fill="none" stroke="#0060e4" stroke-miterlimit="10"/><path d="M197.354,362.303l5.203,13.771" fill="none" stroke="#0060e4" stroke-miterlimit="10"/><path d="M195.4,394.841l9.101,9.101" fill="none" stroke="#0060e4" stroke-miterlimit="10"/><path d="M205.315,423.067v13.587l8.787,8.917" fill="none" stroke="#0060e4" stroke-miterlimit="10"/><path d="M209.138,388.748l6.31-5.886" fill="none" stroke="#0060e4" stroke-miterlimit="10"/><path d="M191.262,492.512l-.000001,11.737999" fill="none" stroke="#0060e4" stroke-miterlimit="10"/><path d="M222.443,490.882v15.487h-13.576l-5.159-10.6" fill="none" stroke="#0060e4" stroke-miterlimit="10"/></g></g></g></svg>