<svg width="45" height="33" viewBox="0 0 45 33" fill="none" xmlns="http://www.w3.org/2000/svg">
<path d="M29.5101 13.9155C33.0766 13.9155 35.9679 11.0243 35.9679 7.45775C35.9679 3.89123 33.0766 1 29.5101 1C25.9436 1 23.0524 3.89123 23.0524 7.45775C23.0524 11.0243 25.9436 13.9155 29.5101 13.9155Z" stroke="#1FD4F6" stroke-width="2" stroke-miterlimit="10" stroke-linecap="round" stroke-linejoin="round"/>
<path d="M15.0186 31.8714C15.0186 23.8386 21.4764 17.3809 29.5092 17.3809C37.542 17.3809 43.9997 23.8386 43.9997 31.8714" stroke="#1FD4F6" stroke-width="2" stroke-miterlimit="10" stroke-linecap="round" stroke-linejoin="round"/>
<path d="M12.0256 14.3901C14.7222 14.3901 16.9082 12.2041 16.9082 9.50744C16.9082 6.81081 14.7222 4.62476 12.0256 4.62476C9.32893 4.62476 7.14288 6.81081 7.14288 9.50744C7.14288 12.2041 9.32893 14.3901 12.0256 14.3901Z" stroke="#10385B" stroke-width="2" stroke-miterlimit="10" stroke-linecap="round" stroke-linejoin="round"/>
<path d="M1 27.9356C1 21.7928 5.88269 16.9102 12.0254 16.9102C13.6005 16.9102 15.018 17.2252 16.2781 17.6977" stroke="#10385B" stroke-width="2" stroke-miterlimit="10" stroke-linecap="round" stroke-linejoin="round"/>
</svg>
