<svg width="52" height="52" viewBox="0 0 52 52" fill="none" xmlns="http://www.w3.org/2000/svg">
<circle cx="26" cy="26" r="26" fill="#2B98F7" fill-opacity="0.15"/>
<path d="M15.001 34.3727C15.001 32.0134 15.001 29.6546 15.001 27.2953C15.2499 26.9022 15.4636 26.8572 15.8612 27.1217C16.2132 27.356 16.5996 27.443 17.0198 27.4421C19.4161 27.4372 21.8124 27.4399 24.2083 27.4399C24.2953 27.4399 24.3823 27.4399 24.4854 27.4399C24.4898 27.5367 24.4956 27.6085 24.4961 27.6808C24.497 28.0591 24.4912 28.4375 24.4987 28.8154C24.5054 29.1558 24.6906 29.3405 25.0256 29.3414C25.9456 29.3445 26.8656 29.3449 27.7856 29.3414C28.0992 29.34 28.2844 29.1616 28.3013 28.8497C28.3116 28.6574 28.304 28.4642 28.3044 28.2715C28.3044 28.0007 28.3044 27.7294 28.3044 27.4399C28.4271 27.4399 28.5146 27.4399 28.6025 27.4399C30.9912 27.4399 33.3799 27.4367 35.7686 27.4425C36.2215 27.4439 36.6346 27.3448 37.0027 27.0776C37.1722 26.9544 37.3516 26.9143 37.5439 27.0147C37.746 27.1204 37.8018 27.3007 37.8018 27.517C37.7995 29.6974 37.8035 31.8773 37.7951 34.0577C37.7942 34.283 37.7527 34.5181 37.6795 34.7314C37.4056 35.5304 36.7047 35.9855 35.7789 35.9855C29.5251 35.9864 23.2709 35.9855 17.0172 35.9855C16.9502 35.9855 16.8838 35.9842 16.8168 35.9811C16.0124 35.948 15.3213 35.414 15.0862 34.6435C15.0581 34.5534 15.0291 34.4632 15.001 34.3727Z" fill="#2B98F7"/>
<path d="M15.0004 24.8935C15.0004 23.7509 15.0004 22.6087 15.0004 21.4661C15.0094 21.4545 15.0232 21.4442 15.0263 21.4313C15.3159 20.3489 15.9615 19.8528 17.0827 19.8524C18.5072 19.8524 19.9318 19.8524 21.3564 19.8524C21.4434 19.8524 21.5308 19.8524 21.6464 19.8524C21.6464 19.5271 21.6406 19.2251 21.6473 18.9235C21.6727 17.854 22.4454 17.0224 23.4796 17.0126C25.4307 16.9943 27.3822 16.9974 29.3332 17.0126C30.1657 17.0188 30.8827 17.5993 31.0723 18.4117C31.1486 18.7383 31.1316 19.0872 31.1517 19.4263C31.1598 19.5628 31.1531 19.7002 31.1531 19.8524C31.2802 19.8524 31.3681 19.8524 31.456 19.8524C32.91 19.8524 34.3645 19.8488 35.8185 19.8537C36.9977 19.8573 37.7963 20.6635 37.7986 21.844C37.8003 22.7265 37.7999 23.609 37.7986 24.4915C37.7968 25.6907 36.9888 26.4952 35.7833 26.4956C33.3718 26.4965 30.9608 26.4956 28.5493 26.4956H28.303C28.303 26.3372 28.3061 26.2114 28.3026 26.086C28.2923 25.7296 28.1183 25.5524 27.7636 25.5511C26.8512 25.548 25.9384 25.5475 25.026 25.5511C24.6829 25.5524 24.5094 25.7291 24.4973 26.0731C24.4924 26.2101 24.4964 26.3475 24.4964 26.4746C24.4465 26.4867 24.4322 26.4934 24.4183 26.4934C21.8811 26.4934 19.3433 26.5014 16.806 26.488C16.0217 26.484 15.3252 25.9183 15.0879 25.1625C15.0598 25.0724 15.0294 24.9831 15 24.8935H15.0004ZM23.564 18.9061V19.8354H29.2359V18.9061H23.564Z" fill="#2B98F7"/>
</svg>
