<svg width="52" height="52" viewBox="0 0 52 52" fill="none" xmlns="http://www.w3.org/2000/svg">
<circle cx="26" cy="26" r="26" fill="#2B98F7" fill-opacity="0.15"/>
<path d="M17 19.4706C17.1253 19.4706 17.2125 19.4706 17.2996 19.4706C18.7393 19.4706 20.1791 19.4711 21.6184 19.4706C22.1783 19.4706 22.4217 19.2243 22.4222 18.6595C22.4232 17.2033 22.4222 15.7466 22.4222 14.2904V14C22.5316 14 22.6172 14 22.7024 14C25.9517 14 29.2009 14 32.4502 14C33.0469 14 33.2831 14.2352 33.2835 14.8305C33.284 17.8963 33.2835 20.9617 33.2835 24.0275C33.2835 24.1069 33.2835 24.1862 33.2835 24.2429C32.9617 24.2429 32.6602 24.2351 32.3592 24.2443C30.1742 24.3106 28.2049 26.0974 27.9155 28.2597C27.7767 29.2968 27.9339 30.2743 28.4251 31.2011C28.4963 31.3357 28.5297 31.5036 28.5345 31.657C28.5486 32.1129 28.5394 32.5697 28.5394 33.0561C28.4261 33.0561 28.34 33.0561 28.2538 33.0561C24.7873 33.0561 21.3212 33.0566 17.8547 33.0542C17.7119 33.0542 17.5609 33.0474 17.4278 33.0029C17.1278 32.9022 17 32.6612 17 32.246C17 29.2687 17 26.2914 17 23.3146C17 22.1319 17 20.9491 17 19.7663C17 19.6792 17 19.5916 17 19.4711V19.4706ZM25.1454 22.1894C26.6573 22.1894 28.1691 22.1894 29.6815 22.189C29.786 22.189 29.891 22.189 29.9941 22.1749C30.3092 22.1333 30.5482 21.8725 30.57 21.5559C30.5918 21.2312 30.3764 20.9321 30.0566 20.8615C29.9404 20.8358 29.8175 20.8305 29.6975 20.8305C26.6573 20.8291 23.6176 20.8291 20.5774 20.8305C20.4578 20.8305 20.3344 20.8358 20.2188 20.8629C19.8369 20.9525 19.623 21.3561 19.7513 21.7278C19.8597 22.0418 20.0954 22.1885 20.5125 22.189C22.0568 22.1904 23.6006 22.1894 25.1449 22.1894H25.1454ZM24.4819 23.5527C23.5092 23.5527 22.5369 23.5518 21.5642 23.5527C21.1465 23.5532 20.7279 23.545 20.3107 23.5653C19.9826 23.5813 19.7343 23.8586 19.7135 24.1853C19.6932 24.5013 19.896 24.7955 20.2033 24.8734C20.3185 24.9025 20.4414 24.9097 20.5609 24.9097C23.1651 24.9117 25.7692 24.9117 28.3734 24.9097C28.4847 24.9097 28.5994 24.9025 28.7073 24.8763C29.0001 24.8062 29.2038 24.5463 29.2145 24.2477C29.2242 23.968 29.0388 23.681 28.7678 23.5973C28.6405 23.5581 28.4987 23.5537 28.3637 23.5537C27.0696 23.5508 25.7755 23.5518 24.4814 23.5518L24.4819 23.5527ZM23.122 26.2692C22.2383 26.2692 21.3541 26.2677 20.4704 26.2696C20.0208 26.2706 19.7193 26.5392 19.713 26.9341C19.7067 27.3382 20.0155 27.6233 20.4724 27.6237C22.2238 27.6257 23.9757 27.6252 25.7271 27.6237C26.1898 27.6237 26.499 27.3469 26.498 26.9438C26.4971 26.5397 26.1912 26.2701 25.7252 26.2692C24.8575 26.2672 23.9897 26.2687 23.122 26.2687V26.2692Z" fill="#2B98F7"/>
<path d="M35.9999 28.9853C35.9955 30.8611 34.4788 32.3749 32.6054 32.3725C30.7316 32.37 29.2183 30.8533 29.2188 28.979C29.2192 27.1071 30.7393 25.5899 32.6117 25.5918C34.4851 25.5937 36.0038 27.1148 35.9999 28.9853ZM32.6205 30.3345C33.3648 30.3302 33.962 29.7252 33.9595 28.977C33.9576 28.2322 33.3522 27.6263 32.6103 27.6259C31.864 27.6259 31.2402 28.2564 31.2523 28.9988C31.2649 29.7412 31.8766 30.3384 32.6205 30.334V30.3345Z" fill="#2B98F7"/>
<path d="M29.8955 32.8926C31.7205 34.0168 33.5068 34.012 35.2892 32.9158C35.3037 32.9434 35.3172 32.9569 35.3172 32.9705C35.3172 34.1605 35.3192 35.3511 35.3124 36.5411C35.3109 36.8058 35.1662 36.9955 34.9281 37.1068C34.6799 37.2225 34.448 37.1901 34.2293 37.0207C33.696 36.6074 33.1598 36.198 32.6095 35.776C32.0907 36.1743 31.5709 36.5643 31.0618 36.9675C30.8208 37.1581 30.574 37.2452 30.2841 37.1054C29.9865 36.9616 29.8921 36.7081 29.8936 36.3916C29.8984 35.2978 29.8955 34.2041 29.8955 33.1099C29.8955 33.0474 29.8955 32.9855 29.8955 32.8931V32.8926Z" fill="#2B98F7"/>
<path d="M17.3857 18.0968C18.6508 16.8748 19.8699 15.6983 21.0464 14.5625V18.0968H17.3857Z" fill="#2B98F7"/>
</svg>
