<svg width="52" height="52" viewBox="0 0 52 52" fill="none" xmlns="http://www.w3.org/2000/svg">
<circle cx="26" cy="26" r="26" fill="#2B98F7" fill-opacity="0.15"/>
<path d="M26.7911 36.9965C26.3619 36.9618 25.9328 36.9319 25.5045 36.8924C23.511 36.7091 21.6052 36.2114 19.8132 35.3058C19.6926 35.245 19.6338 35.1823 19.6338 35.0357C19.6386 31.7237 19.6376 28.4117 19.6376 25.1007C19.6376 25.0592 19.6454 25.0168 19.6511 24.9551C20.224 24.9927 20.7777 25.093 21.2792 25.3351C21.8964 25.6331 22.479 26.0054 23.0827 26.3333C23.2255 26.4105 23.3923 26.4809 23.5505 26.4847C24.3182 26.5011 25.086 26.4828 25.8537 26.4953C28.3941 26.5368 30.5333 28.6017 30.6693 31.1354C30.6741 31.2299 30.6693 31.3245 30.6693 31.446H22.9718V32.5378H31.7553C31.8681 30.9946 31.7157 29.5122 30.7918 28.1648C30.8709 28.1562 30.9008 28.1494 30.9316 28.1494C32.0186 28.1494 33.1084 28.105 34.1925 28.1629C36.296 28.2758 37.8623 29.2759 38.8625 31.1441C38.9435 31.2946 38.9358 31.392 38.8239 31.528C36.4368 34.4378 33.3872 36.197 29.6711 36.7949C29.1618 36.8769 28.6429 36.903 28.1289 36.957C28.044 36.9657 27.961 36.984 27.8771 36.9984H26.7902L26.7911 36.9965Z" fill="#2B98F7"/>
<path d="M18.4132 29.8209C18.4132 31.4239 18.4132 33.0268 18.4132 34.6307C18.4132 35.4997 18.0399 35.8711 17.1681 35.872C16.5045 35.873 15.84 35.8749 15.1764 35.872C14.3962 35.8662 14.0017 35.4679 14.0007 34.6867C13.9998 31.4287 13.9998 28.1707 14.0007 24.9127C14.0007 24.145 14.3962 23.7428 15.1571 23.738C15.8554 23.7332 16.5537 23.7332 17.252 23.738C18.0187 23.7428 18.4093 24.1354 18.4103 24.9089C18.4132 26.5465 18.4103 28.1842 18.4113 29.8219L18.4132 29.8209Z" fill="#2B98F7"/>
<path d="M25.0241 22.6232C23.1473 22.6117 21.717 21.1707 21.7266 19.3026C21.7372 17.4826 23.2611 15.9799 25.0743 16.0002C26.9502 16.0214 28.3612 17.4594 28.3506 19.3402C28.34 21.217 26.9039 22.6338 25.0232 22.6223L25.0241 22.6232Z" fill="#2B98F7"/>
<path d="M29.4668 22.6371C29.4658 20.8046 30.9608 19.3067 32.7846 19.3125C34.6528 19.3183 36.0966 20.7669 36.0908 22.6303C36.085 24.5072 34.6576 25.9327 32.7788 25.9355C30.899 25.9384 29.4678 24.5139 29.4668 22.6371V22.6371Z" fill="#2B98F7"/>
</svg>
