<svg id="eynk7ZDGKXi1" xmlns="http://www.w3.org/2000/svg" xmlns:xlink="http://www.w3.org/1999/xlink" viewBox="0 0 60 60" shape-rendering="geometricPrecision" text-rendering="geometricPrecision"><style><![CDATA[#eynk7ZDGKXi3 {animation: eynk7ZDGKXi3_s_do 3000ms linear infinite normal forwards}@keyframes eynk7ZDGKXi3_s_do { 0% {stroke-dashoffset: 120;animation-timing-function: cubic-bezier(0.42,0,0.58,1)} 70% {stroke-dashoffset: 0} 100% {stroke-dashoffset: 0}} #eynk7ZDGKXi4 {animation: eynk7ZDGKXi4_s_do 3000ms linear infinite normal forwards}@keyframes eynk7ZDGKXi4_s_do { 0% {stroke-dashoffset: 150;animation-timing-function: cubic-bezier(0.42,0,0.58,1)} 70% {stroke-dashoffset: 0} 100% {stroke-dashoffset: 0}} #eynk7ZDGKXi5_tr {animation: eynk7ZDGKXi5_tr__tr 3000ms linear infinite normal forwards}@keyframes eynk7ZDGKXi5_tr__tr { 0% {transform: translate(41.793589px,40.596652px) rotate(0deg)} 20% {transform: translate(41.793589px,40.596652px) rotate(0deg)} 30% {transform: translate(41.793589px,40.596652px) rotate(-3.452276deg)} 40% {transform: translate(41.793589px,40.596652px) rotate(0deg)} 100% {transform: translate(41.793589px,40.596652px) rotate(0deg)}} #eynk7ZDGKXi8_tr {animation: eynk7ZDGKXi8_tr__tr 3000ms linear infinite normal forwards}@keyframes eynk7ZDGKXi8_tr__tr { 0% {transform: translate(18.367679px,40.596651px) rotate(0deg)} 20% {transform: translate(18.367679px,40.596651px) rotate(0deg);animation-timing-function: cubic-bezier(0.42,0,0.58,1)} 30% {transform: translate(18.367679px,40.596651px) rotate(4.446843deg);animation-timing-function: cubic-bezier(0.42,0,0.58,1)} 40% {transform: translate(18.367679px,40.596651px) rotate(0deg)} 100% {transform: translate(18.367679px,40.596651px) rotate(0deg)}}]]></style><g transform="matrix(1.067142 0 0 1.067142-2.149408-.407524)"><path id="eynk7ZDGKXi3" d="M27.2744,12.9032c3.2869,0,5.9516-2.6646,5.9516-5.95159s-2.6647-5.95161-5.9516-5.95161-5.9516,2.66462-5.9516,5.95161s2.6646,5.95159,5.9516,5.95159Z" transform="translate(2.545212 14.77425)" fill="none" stroke="#04bbf2" stroke-width="2" stroke-linecap="round" stroke-linejoin="round" stroke-miterlimit="10" stroke-dashoffset="120" stroke-dasharray="120"/><path id="eynk7ZDGKXi4" d="M13.9194,29.4515c0-7.4032,5.9516-13.3548,13.3549-13.3548s13.3548,5.9516,13.3548,13.3548" transform="translate(2.545212 14.77425)" fill="none" stroke="#04bbf2" stroke-width="2" stroke-linecap="round" stroke-linejoin="round" stroke-miterlimit="10" stroke-dashoffset="150" stroke-dasharray="150"/><g id="eynk7ZDGKXi5_tr" transform="translate(41.793589,40.596652) rotate(0)"><g transform="translate(-40.3389,-25.8224)"><path d="M44.8389,13.3379c2.4852,0,4.5-2.0147,4.5-4.50001s-2.0148-4.5-4.5-4.5c-2.4853,0-4.5,2.01472-4.5,4.5s2.0147,4.50001,4.5,4.50001Z" fill="none" stroke="#fff" stroke-width="2" stroke-linecap="round" stroke-linejoin="round" stroke-miterlimit="10"/><path d="M40.6292,16.5321c1.3064-.5806,2.758-.871,4.2096-.871c5.6613,0,10.1613,4.5,10.1613,10.1613" fill="none" stroke="#fff" stroke-width="2" stroke-linecap="round" stroke-linejoin="round" stroke-miterlimit="10"/></g></g><g id="eynk7ZDGKXi8_tr" transform="translate(18.367679,40.596651) rotate(0)"><g transform="translate(-15.822467,-25.8224)"><path d="M11.1611,13.3379c2.4853,0,4.5-2.0147,4.5-4.50001s-2.0147-4.5-4.5-4.5-4.49997,2.01472-4.49997,4.5s2.01472,4.50001,4.49997,4.50001Z" fill="none" stroke="#fff" stroke-width="2" stroke-linecap="round" stroke-linejoin="round" stroke-miterlimit="10"/><path d="M1,25.8224c0-5.6613,4.49999-10.1613,10.1613-10.1613c1.4516,0,2.758.2904,3.9193.7258" fill="none" stroke="#fff" stroke-width="2" stroke-linecap="round" stroke-linejoin="round" stroke-miterlimit="10"/></g></g></g></svg>