<svg id="eep8CSndyD11" xmlns="http://www.w3.org/2000/svg" xmlns:xlink="http://www.w3.org/1999/xlink" viewBox="0 0 60 60" shape-rendering="geometricPrecision" text-rendering="geometricPrecision"><style><![CDATA[#eep8CSndyD13 {animation: eep8CSndyD13_s_do 3000ms linear infinite normal forwards}@keyframes eep8CSndyD13_s_do { 0% {stroke-dashoffset: 150} 50% {stroke-dashoffset: 0} 100% {stroke-dashoffset: 0}} #eep8CSndyD14 {animation: eep8CSndyD14_s_do 3000ms linear infinite normal forwards}@keyframes eep8CSndyD14_s_do { 0% {stroke-dashoffset: 120} 50% {stroke-dashoffset: 0} 100% {stroke-dashoffset: 0}} #eep8CSndyD15_tr {animation: eep8CSndyD15_tr__tr 3000ms linear infinite normal forwards}@keyframes eep8CSndyD15_tr__tr { 0% {transform: translate(37.1138px,30px) rotate(0deg)} 6.666667% {transform: translate(37.1138px,30px) rotate(0deg);animation-timing-function: cubic-bezier(0.42,0,0.58,1)} 26.666667% {transform: translate(37.1138px,30px) rotate(6.464752deg);animation-timing-function: cubic-bezier(0.42,0,0.58,1)} 43.333333% {transform: translate(37.1138px,30px) rotate(-11.090419deg);animation-timing-function: cubic-bezier(0.46,0,0.2,1.01)} 60% {transform: translate(37.1138px,30px) rotate(0deg)} 100% {transform: translate(37.1138px,30px) rotate(0deg)}}]]></style><g transform="matrix(1.143491 0 0 1.143491-4.30473-4.30473)"><path id="eep8CSndyD13" d="M31.5086,13.5938h-9.0742c-1.1695.0024-2.327.2356-3.4062.6862-1.0792.4507-2.0588,1.1099-2.8827,1.9399s-1.4759,1.8144-1.9186,2.8968-.6675,2.2417-.6613,3.4112c0,1.1679.2301,2.3244.6774,3.4033s1.1027,2.0591,1.9289,2.8845s1.8072,1.4798,2.8865,1.9259s2.2361.6751,3.404.6738h9.0743" transform="translate(11.8318 7.5)" fill="none" stroke="#04bbf2" stroke-width="2" stroke-linecap="round" stroke-linejoin="round" stroke-miterlimit="10" stroke-dashoffset="150" stroke-dasharray="150"/><path id="eep8CSndyD14" d="M30.4446,19.9788h-8.7381c-.3357-.0051-.6689.0574-.9799.1838s-.5934.3141-.8303.5519-.4236.5209-.5489.8324c-.1252.3114-.1865.6449-.1802.9805c0,.3294.065.6555.1913.9597.1263.3041.3115.5803.5448.8127s.5102.4166.8149.5418.6309.189.9603.1878h8.7381" transform="translate(11.8318 7.5)" fill="none" stroke="#fff" stroke-width="2" stroke-linecap="round" stroke-linejoin="round" stroke-miterlimit="10" stroke-dashoffset="120" stroke-dasharray="120"/><g id="eep8CSndyD15_tr" transform="translate(37.1138,30) rotate(0)"><path d="M25.2353,40.6112v3.3888h-6.4416v-3.0341c-2.4466-.4721-4.7754-1.424-6.8523-2.8007L9.8315,40.2657L4.68756,35.1218l2.15653-2.1565c-1.38424-2.0728-2.33675-4.4034-2.80069-6.8524h-3.0434v-7.2724h3.0434c.46687-2.4481,1.41915-4.7781,2.80069-6.8524L4.68756,9.83159L9.8315,4.68765L11.988,6.84412c2.0729-1.38424,4.4034-2.33675,6.8524-2.80069v-3.04343h6.4416v2.63271" transform="scale(1,1.046512) translate(-25.282,-22.5)" fill="none" stroke="#fff" stroke-width="2" stroke-linecap="round" stroke-linejoin="round" stroke-miterlimit="10"/></g><path d="M33.4226,15.5083c1.057,0,1.9138-.8569,1.9138-1.9138s-.8568-1.9138-1.9138-1.9138-1.9138.8568-1.9138,1.9138.8568,1.9138,1.9138,1.9138Z" transform="translate(11.8318 7.5)" fill="none" stroke="#04bbf2" stroke-width="2" stroke-linecap="round" stroke-linejoin="round" stroke-miterlimit="10"/><path d="M33.4226,33.2915c1.057,0,1.9138-.8569,1.9138-1.9138s-.8568-1.9138-1.9138-1.9138-1.9138.8568-1.9138,1.9138c0,1.0569.8568,1.9138,1.9138,1.9138Z" transform="translate(11.8318 7.5)" fill="none" stroke="#04bbf2" stroke-width="2" stroke-linecap="round" stroke-linejoin="round" stroke-miterlimit="10"/></g></svg>